<svg width="91" height="144" viewBox="0 0 91 144" fill="none" xmlns="http://www.w3.org/2000/svg">
<path d="M5.64043 109.868H2.82031L2.82031 112.685H5.64043V109.868Z" fill="white"/>
<path d="M8.46074 109.868H5.64062L5.64063 112.685H8.46074V109.868Z" fill="white"/>
<path d="M5.64043 107.05H2.82031L2.82031 109.867H5.64043V107.05Z" fill="white"/>
<path d="M8.46074 104.233H5.64062L5.64063 107.051H8.46074V104.233Z" fill="white"/>
<path d="M8.46074 107.05H5.64062L5.64063 109.867H8.46074V107.05Z" fill="white"/>
<path d="M8.46074 101.417H5.64062L5.64063 104.234H8.46074V101.417Z" fill="white"/>
<path d="M8.46074 98.5991H5.64062L5.64063 101.416H8.46074V98.5991Z" fill="white"/>
<path d="M11.2791 95.7827H8.45898V98.5998H11.2791V95.7827Z" fill="white"/>
<path d="M11.2791 98.5991H8.45898V101.416H11.2791V98.5991Z" fill="white"/>
<path d="M11.2791 92.9648H8.45898V95.782H11.2791V92.9648Z" fill="white"/>
<path d="M11.2791 87.3311H8.45898V90.1482H11.2791V87.3311Z" fill="white"/>
<path d="M11.2791 90.1479H8.45898V92.9651H11.2791V90.1479Z" fill="white"/>
<path d="M14.1014 84.5137H11.2812V87.3308H14.1014V84.5137Z" fill="white"/>
<path d="M14.1014 81.6968H11.2812V84.5139H14.1014V81.6968Z" fill="white"/>
<path d="M14.1014 76.062H11.2812V78.8791H14.1014V76.062Z" fill="white"/>
<path d="M14.1014 78.8794H11.2812V81.6965H14.1014V78.8794Z" fill="white"/>
<path d="M14.1014 73.2456H11.2812V76.0627H14.1014V73.2456Z" fill="white"/>
<path d="M16.9217 70.4277H14.1016V73.2449H16.9217V70.4277Z" fill="white"/>
<path d="M16.9217 67.6113H14.1016V70.4285H16.9217V67.6113Z" fill="white"/>
<path d="M16.9217 61.9766H14.1016V64.7937H16.9217V61.9766Z" fill="white"/>
<path d="M16.9217 64.7935H14.1016V67.6106H16.9217V64.7935Z" fill="white"/>
<path d="M16.9217 59.1597H14.1016V61.9768H16.9217V59.1597Z" fill="white"/>
<path d="M16.9217 56.3423H14.1016V59.1594H16.9217V56.3423Z" fill="white"/>
<path d="M19.742 59.1597H16.9219V61.9768H19.742V59.1597Z" fill="white"/>
<path d="M22.5623 61.9766H19.7422V64.7937H22.5623V61.9766Z" fill="white"/>
<path d="M25.3807 64.7935H22.5605V67.6106H25.3807V64.7935Z" fill="white"/>
<path d="M28.2029 67.6113H25.3828V70.4285H28.2029V67.6113Z" fill="white"/>
<path d="M31.0213 64.7935H28.2012V67.6106H31.0213V64.7935Z" fill="white"/>
<path d="M87.4275 109.868H84.6074V112.685H87.4275V109.868Z" fill="white"/>
<path d="M84.6072 109.868H81.7871V112.685H84.6072V109.868Z" fill="white"/>
<path d="M87.4275 107.05H84.6074V109.867H87.4275V107.05Z" fill="white"/>
<path d="M84.6072 104.233H81.7871V107.051H84.6072V104.233Z" fill="white"/>
<path d="M84.6072 107.05H81.7871V109.867H84.6072V107.05Z" fill="white"/>
<path d="M84.6072 101.417H81.7871V104.234H84.6072V101.417Z" fill="white"/>
<path d="M84.6072 98.5991H81.7871V101.416H84.6072V98.5991Z" fill="white"/>
<path d="M81.7869 95.7827H78.9668V98.5998H81.7869V95.7827Z" fill="white"/>
<path d="M81.7869 98.5991H78.9668V101.416H81.7869V98.5991Z" fill="white"/>
<path d="M81.7869 92.9648H78.9668V95.782H81.7869V92.9648Z" fill="white"/>
<path d="M81.7869 87.3311H78.9668V90.1482H81.7869V87.3311Z" fill="white"/>
<path d="M81.7869 90.1479H78.9668V92.9651H81.7869V90.1479Z" fill="white"/>
<path d="M78.9686 84.5137H76.1484V87.3308H78.9686V84.5137Z" fill="white"/>
<path d="M78.9686 81.6968H76.1484V84.5139H78.9686V81.6968Z" fill="white"/>
<path d="M78.9686 76.062H76.1484V78.8791H78.9686V76.062Z" fill="white"/>
<path d="M78.9686 78.8794H76.1484V81.6965H78.9686V78.8794Z" fill="white"/>
<path d="M78.9686 73.2456H76.1484V76.0627H78.9686V73.2456Z" fill="white"/>
<path d="M76.1463 70.4277H73.3262V73.2449H76.1463V70.4277Z" fill="white"/>
<path d="M76.1463 67.6113H73.3262V70.4285H76.1463V67.6113Z" fill="white"/>
<path d="M76.1463 61.9766H73.3262V64.7937H76.1463V61.9766Z" fill="white"/>
<path d="M76.1463 64.7935H73.3262V67.6106H76.1463V64.7935Z" fill="white"/>
<path d="M76.1463 59.1597H73.3262V61.9768H76.1463V59.1597Z" fill="white"/>
<path d="M76.1463 56.3423H73.3262V59.1594H76.1463V56.3423Z" fill="white"/>
<path d="M73.326 59.1597H70.5059V61.9768H73.326V59.1597Z" fill="white"/>
<path d="M70.5057 61.9766H67.6855V64.7937H70.5057V61.9766Z" fill="white"/>
<path d="M67.6854 64.7935H64.8652V67.6106H67.6854V64.7935Z" fill="white"/>
<path d="M64.867 67.6113H62.0469V70.4285H64.867V67.6113Z" fill="white"/>
<path d="M62.0447 64.7935H59.2246V67.6106H62.0447V64.7935Z" fill="white"/>
<path d="M11.2791 109.868H8.45898V112.685H11.2791V109.868Z" fill="white"/>
<path d="M14.1014 107.05H11.2812V109.867H14.1014V107.05Z" fill="white"/>
<path d="M16.9217 104.233H14.1016V107.051H16.9217V104.233Z" fill="white"/>
<path d="M19.742 104.233H16.9219V107.051H19.742V104.233Z" fill="white"/>
<path d="M22.5623 101.417H19.7422V104.234H22.5623V101.417Z" fill="white"/>
<path d="M25.3807 98.5991H22.5605V101.416H25.3807V98.5991Z" fill="white"/>
<path d="M33.8436 98.5991H31.0234V101.416H33.8436V98.5991Z" fill="white"/>
<path d="M33.8436 101.417H31.0234V104.234H33.8436V101.417Z" fill="white"/>
<path d="M36.6639 104.233H33.8438V107.051H36.6639V104.233Z" fill="white"/>
<path d="M36.6639 107.05H33.8438V109.867H36.6639V107.05Z" fill="white"/>
<path d="M81.7869 109.868H78.9668V112.685H81.7869V109.868Z" fill="white"/>
<path d="M78.9686 107.05H76.1484V109.867H78.9686V107.05Z" fill="white"/>
<path d="M76.1463 104.233H73.3262V107.051H76.1463V104.233Z" fill="white"/>
<path d="M73.326 104.233H70.5059V107.051H73.326V104.233Z" fill="white"/>
<path d="M70.5057 101.417H67.6855V104.234H70.5057V101.417Z" fill="white"/>
<path d="M67.6854 98.5991H64.8652V101.416H67.6854V98.5991Z" fill="white"/>
<path d="M59.2264 98.5991H56.4062V101.416H59.2264V98.5991Z" fill="white"/>
<path d="M59.2264 101.417H56.4062V104.234H59.2264V101.417Z" fill="white"/>
<path d="M56.4061 104.233H53.5859V107.051H56.4061V104.233Z" fill="white"/>
<path d="M56.4061 107.05H53.5859V109.867H56.4061V107.05Z" fill="white"/>
<path d="M42.3045 8.45117H39.4844V11.2683H42.3045V8.45117Z" fill="white"/>
<path d="M50.7654 8.45117H47.9453V11.2683H50.7654V8.45117Z" fill="white"/>
<path d="M42.3045 5.63428L39.4844 5.63428V8.4514H42.3045V5.63428Z" fill="white"/>
<path d="M42.3045 2.81641L39.4844 2.81641V5.63353H42.3045V2.81641Z" fill="white"/>
<path d="M42.3045 0L39.4844 0V2.81712L42.3045 2.81712V0Z" fill="white"/>
<path d="M50.7654 5.63428L47.9453 5.63428V8.4514H50.7654V5.63428Z" fill="white"/>
<path d="M50.7654 2.81641L47.9453 2.81641V5.63353H50.7654V2.81641Z" fill="white"/>
<path d="M50.7654 0L47.9453 0V2.81712L50.7654 2.81712V0Z" fill="white"/>
<path d="M53.5838 109.868H50.7637V112.685H53.5838V109.868Z" fill="white"/>
<path d="M50.7654 109.868H47.9453V112.685H50.7654V109.868Z" fill="white"/>
<path d="M47.9432 109.868H45.123V112.685H47.9432V109.868Z" fill="white"/>
<path d="M45.1229 109.868H42.3027V112.685H45.1229V109.868Z" fill="white"/>
<path d="M42.3045 109.868H39.4844V112.685H42.3045V109.868Z" fill="white"/>
<path d="M39.4822 109.868H36.6621V112.685H39.4822V109.868Z" fill="white"/>
<path d="M11.2791 107.05H8.45898V109.867H11.2791V107.05Z" fill="white"/>
<path d="M14.1014 104.233H11.2812V107.051H14.1014V104.233Z" fill="white"/>
<path d="M19.742 101.417H16.9219V104.234H19.742V101.417Z" fill="white"/>
<path d="M14.1014 101.417H11.2812V104.234H14.1014V101.417Z" fill="white"/>
<path d="M16.9217 101.417H14.1016V104.234H16.9217V101.417Z" fill="white"/>
<path d="M22.5623 98.5991H19.7422V101.416H22.5623V98.5991Z" fill="white"/>
<path d="M16.9217 98.5991H14.1016V101.416H16.9217V98.5991Z" fill="white"/>
<path d="M19.742 98.5991H16.9219V101.416H19.742V98.5991Z" fill="white"/>
<path d="M25.3807 95.7827H22.5605V98.5998H25.3807V95.7827Z" fill="white"/>
<path d="M28.2029 95.7827H25.3828V98.5998H28.2029V95.7827Z" fill="white"/>
<path d="M22.5623 95.7827H19.7422V98.5998H22.5623V95.7827Z" fill="white"/>
<path d="M16.9217 95.7827H14.1016V98.5998H16.9217V95.7827Z" fill="white"/>
<path d="M19.742 95.7827H16.9219V98.5998H19.742V95.7827Z" fill="white"/>
<path d="M25.3807 92.9648H22.5605V95.782H25.3807V92.9648Z" fill="white"/>
<path d="M28.2029 92.9648H25.3828V95.782H28.2029V92.9648Z" fill="white"/>
<path d="M22.5623 92.9648H19.7422V95.782H22.5623V92.9648Z" fill="white"/>
<path d="M16.9217 92.9648H14.1016V95.782H16.9217V92.9648Z" fill="white"/>
<path d="M19.742 92.9648H16.9219V95.782H19.742V92.9648Z" fill="white"/>
<path d="M25.3807 90.1479H22.5605V92.9651H25.3807V90.1479Z" fill="white"/>
<path d="M28.2029 90.1479H25.3828V92.9651H28.2029V90.1479Z" fill="white"/>
<path d="M22.5623 90.1479H19.7422V92.9651H22.5623V90.1479Z" fill="white"/>
<path d="M16.9217 90.1479H14.1016V92.9651H16.9217V90.1479Z" fill="white"/>
<path d="M19.742 90.1479H16.9219V92.9651H19.742V90.1479Z" fill="white"/>
<path d="M25.3807 87.3311H22.5605V90.1482H25.3807V87.3311Z" fill="white"/>
<path d="M28.2029 87.3311H25.3828V90.1482H28.2029V87.3311Z" fill="white"/>
<path d="M14.1014 87.3311H11.2812V90.1482H14.1014V87.3311Z" fill="white"/>
<path d="M22.5623 87.3311H19.7422V90.1482H22.5623V87.3311Z" fill="white"/>
<path d="M19.742 87.3311H16.9219V90.1482H19.742V87.3311Z" fill="white"/>
<path d="M28.2029 84.5137H25.3828V87.3308H28.2029V84.5137Z" fill="white"/>
<path d="M31.0213 84.5137H28.2012V87.3308H31.0213V84.5137Z" fill="white"/>
<path d="M25.3807 84.5137H22.5605V87.3308H25.3807V84.5137Z" fill="white"/>
<path d="M22.5623 84.5137H19.7422V87.3308H22.5623V84.5137Z" fill="white"/>
<path d="M28.2029 81.6968H25.3828V84.5139H28.2029V81.6968Z" fill="white"/>
<path d="M31.0213 81.6968H28.2012V84.5139H31.0213V81.6968Z" fill="white"/>
<path d="M16.9217 81.6968H14.1016V84.5139H16.9217V81.6968Z" fill="white"/>
<path d="M25.3807 81.6968H22.5605V84.5139H25.3807V81.6968Z" fill="white"/>
<path d="M28.2029 78.8794H25.3828V81.6965H28.2029V78.8794Z" fill="white"/>
<path d="M31.0213 78.8794H28.2012V81.6965H31.0213V78.8794Z" fill="white"/>
<path d="M16.9217 78.8794H14.1016V81.6965H16.9217V78.8794Z" fill="white"/>
<path d="M19.742 78.8794H16.9219V81.6965H19.742V78.8794Z" fill="white"/>
<path d="M31.0213 76.062H28.2012V78.8791H31.0213V76.062Z" fill="white"/>
<path d="M16.9217 76.062H14.1016V78.8791H16.9217V76.062Z" fill="white"/>
<path d="M22.5623 76.062H19.7422V78.8791H22.5623V76.062Z" fill="white"/>
<path d="M16.9217 73.2456H14.1016V76.0627H16.9217V73.2456Z" fill="white"/>
<path d="M25.3807 73.2456H22.5605V76.0627H25.3807V73.2456Z" fill="white"/>
<path d="M19.742 73.2456H16.9219V76.0627H19.742V73.2456Z" fill="white"/>
<path d="M22.5623 73.2456H19.7422V76.0627H22.5623V73.2456Z" fill="white"/>
<path d="M22.5623 70.4277H19.7422V73.2449H22.5623V70.4277Z" fill="white"/>
<path d="M25.3807 70.4277H22.5605V73.2449H25.3807V70.4277Z" fill="white"/>
<path d="M31.0213 67.6113H28.2012V70.4285H31.0213V67.6113Z" fill="white"/>
<path d="M19.742 67.6113H16.9219V70.4285H19.742V67.6113Z" fill="white"/>
<path d="M22.5623 67.6113H19.7422V70.4285H22.5623V67.6113Z" fill="white"/>
<path d="M25.3807 67.6113H22.5605V70.4285H25.3807V67.6113Z" fill="white"/>
<path d="M19.742 64.7935H16.9219V67.6106H19.742V64.7935Z" fill="white"/>
<path d="M22.5623 64.7935H19.7422V67.6106H22.5623V64.7935Z" fill="white"/>
<path d="M19.742 61.9766H16.9219V64.7937H19.742V61.9766Z" fill="white"/>
<path d="M31.0213 92.9648H28.2012V95.782H31.0213V92.9648Z" fill="white"/>
<path d="M31.0213 90.1479H28.2012V92.9651H31.0213V90.1479Z" fill="white"/>
<path d="M31.0213 87.3311H28.2012V90.1482H31.0213V87.3311Z" fill="white"/>
<path d="M33.8436 64.7935H31.0234V67.6106H33.8436V64.7935Z" fill="white"/>
<path d="M33.8436 61.9766H31.0234V64.7937H33.8436V61.9766Z" fill="white"/>
<path d="M33.8436 56.3423H31.0234V59.1594H33.8436V56.3423Z" fill="white"/>
<path d="M33.8436 59.1597H31.0234V61.9768H33.8436V59.1597Z" fill="white"/>
<path d="M33.8436 95.7827H31.0234V98.5998H33.8436V95.7827Z" fill="white"/>
<path d="M33.8436 84.5137H31.0234V87.3308H33.8436V84.5137Z" fill="white"/>
<path d="M33.8436 81.6968H31.0234V84.5139H33.8436V81.6968Z" fill="white"/>
<path d="M33.8436 78.8794H31.0234V81.6965H33.8436V78.8794Z" fill="white"/>
<path d="M33.8436 76.062H31.0234V78.8791H33.8436V76.062Z" fill="white"/>
<path d="M33.8436 73.2456H31.0234V76.0627H33.8436V73.2456Z" fill="white"/>
<path d="M33.8436 70.4277H31.0234V73.2449H33.8436V70.4277Z" fill="white"/>
<path d="M33.8436 67.6113H31.0234V70.4285H33.8436V67.6113Z" fill="white"/>
<path d="M33.8436 92.9648H31.0234V95.782H33.8436V92.9648Z" fill="white"/>
<path d="M33.8436 90.1479H31.0234V92.9651H33.8436V90.1479Z" fill="white"/>
<path d="M33.8436 87.3311H31.0234V90.1482H33.8436V87.3311Z" fill="white"/>
<path d="M36.6639 95.7827H33.8438V98.5998H36.6639V95.7827Z" fill="white"/>
<path d="M36.6639 92.9648H33.8438V95.782H36.6639V92.9648Z" fill="white"/>
<path d="M39.4822 81.6968H36.6621V84.5139H39.4822V81.6968Z" fill="white"/>
<path d="M39.4822 76.062H36.6621V78.8791H39.4822V76.062Z" fill="white"/>
<path d="M39.4822 73.2456H36.6621V76.0627H39.4822V73.2456Z" fill="white"/>
<path d="M39.4822 92.9648H36.6621V95.782H39.4822V92.9648Z" fill="white"/>
<path d="M39.4822 87.3311H36.6621V90.1482H39.4822V87.3311Z" fill="white"/>
<path d="M42.3045 81.6968H39.4844V84.5139H42.3045V81.6968Z" fill="white"/>
<path d="M42.3045 76.062H39.4844V78.8791H42.3045V76.062Z" fill="white"/>
<path d="M42.3045 70.4277H39.4844V73.2449H42.3045V70.4277Z" fill="white"/>
<path d="M42.3045 92.9648H39.4844V95.782H42.3045V92.9648Z" fill="white"/>
<path d="M42.3045 87.3311H39.4844V90.1482H42.3045V87.3311Z" fill="white"/>
<path d="M45.1229 64.7935H42.3027V67.6106H45.1229V64.7935Z" fill="white"/>
<path d="M45.1229 61.9766H42.3027V64.7937H45.1229V61.9766Z" fill="white"/>
<path d="M45.1229 56.3423H42.3027V59.1594H45.1229V56.3423Z" fill="white"/>
<path d="M45.1229 59.1597H42.3027V61.9768H45.1229V59.1597Z" fill="white"/>
<path d="M45.1229 81.6968H42.3027V84.5139H45.1229V81.6968Z" fill="white"/>
<path d="M45.1229 76.062H42.3027V78.8791H45.1229V76.062Z" fill="white"/>
<path d="M45.1229 70.4277H42.3027V73.2449H45.1229V70.4277Z" fill="white"/>
<path d="M45.1229 67.6113H42.3027V70.4285H45.1229V67.6113Z" fill="white"/>
<path d="M45.1229 92.9648H42.3027V95.782H45.1229V92.9648Z" fill="white"/>
<path d="M45.1229 87.3311H42.3027V90.1482H45.1229V87.3311Z" fill="white"/>
<path d="M47.9432 64.7935H45.123V67.6106H47.9432V64.7935Z" fill="white"/>
<path d="M47.9432 61.9766H45.123V64.7937H47.9432V61.9766Z" fill="white"/>
<path d="M47.9432 56.3423H45.123V59.1594H47.9432V56.3423Z" fill="white"/>
<path d="M47.9432 59.1597H45.123V61.9768H47.9432V59.1597Z" fill="white"/>
<path d="M47.9432 81.6968H45.123V84.5139H47.9432V81.6968Z" fill="white"/>
<path d="M47.9432 76.062H45.123V78.8791H47.9432V76.062Z" fill="white"/>
<path d="M47.9432 70.4277H45.123V73.2449H47.9432V70.4277Z" fill="white"/>
<path d="M47.9432 67.6113H45.123V70.4285H47.9432V67.6113Z" fill="white"/>
<path d="M47.9432 92.9648H45.123V95.782H47.9432V92.9648Z" fill="white"/>
<path d="M47.9432 87.3311H45.123V90.1482H47.9432V87.3311Z" fill="white"/>
<path d="M50.7654 81.6968H47.9453V84.5139H50.7654V81.6968Z" fill="white"/>
<path d="M50.7654 76.062H47.9453V78.8791H50.7654V76.062Z" fill="white"/>
<path d="M50.7654 70.4277H47.9453V73.2449H50.7654V70.4277Z" fill="white"/>
<path d="M50.7654 92.9648H47.9453V95.782H50.7654V92.9648Z" fill="white"/>
<path d="M50.7654 87.3311H47.9453V90.1482H50.7654V87.3311Z" fill="white"/>
<path d="M53.5838 81.6968H50.7637V84.5139H53.5838V81.6968Z" fill="white"/>
<path d="M53.5838 76.062H50.7637V78.8791H53.5838V76.062Z" fill="white"/>
<path d="M53.5838 73.2456H50.7637V76.0627H53.5838V73.2456Z" fill="white"/>
<path d="M53.5838 92.9648H50.7637V95.782H53.5838V92.9648Z" fill="white"/>
<path d="M53.5838 87.3311H50.7637V90.1482H53.5838V87.3311Z" fill="white"/>
<path d="M56.4061 95.7827H53.5859V98.5998H56.4061V95.7827Z" fill="white"/>
<path d="M56.4061 92.9648H53.5859V95.782H56.4061V92.9648Z" fill="white"/>
<path d="M59.2264 64.7935H56.4062V67.6106H59.2264V64.7935Z" fill="white"/>
<path d="M59.2264 61.9766H56.4062V64.7937H59.2264V61.9766Z" fill="white"/>
<path d="M59.2264 56.3423H56.4062V59.1594H59.2264V56.3423Z" fill="white"/>
<path d="M59.2264 59.1597H56.4062V61.9768H59.2264V59.1597Z" fill="white"/>
<path d="M59.2264 95.7827H56.4062V98.5998H59.2264V95.7827Z" fill="white"/>
<path d="M59.2264 84.5137H56.4062V87.3308H59.2264V84.5137Z" fill="white"/>
<path d="M59.2264 81.6968H56.4062V84.5139H59.2264V81.6968Z" fill="white"/>
<path d="M59.2264 78.8794H56.4062V81.6965H59.2264V78.8794Z" fill="white"/>
<path d="M59.2264 76.062H56.4062V78.8791H59.2264V76.062Z" fill="white"/>
<path d="M59.2264 73.2456H56.4062V76.0627H59.2264V73.2456Z" fill="white"/>
<path d="M59.2264 70.4277H56.4062V73.2449H59.2264V70.4277Z" fill="white"/>
<path d="M59.2264 67.6113H56.4062V70.4285H59.2264V67.6113Z" fill="white"/>
<path d="M59.2264 92.9648H56.4062V95.782H59.2264V92.9648Z" fill="white"/>
<path d="M59.2264 90.1479H56.4062V92.9651H59.2264V90.1479Z" fill="white"/>
<path d="M59.2264 87.3311H56.4062V90.1482H59.2264V87.3311Z" fill="white"/>
<path d="M42.3045 22.5371H39.4844V25.3542H42.3045V22.5371Z" fill="white"/>
<path d="M42.3045 19.7197H39.4844V22.5368H42.3045V19.7197Z" fill="white"/>
<path d="M42.3045 14.0854H39.4844V16.9026H42.3045V14.0854Z" fill="white"/>
<path d="M42.3045 16.9028H39.4844V19.72H42.3045V16.9028Z" fill="white"/>
<path d="M42.3045 30.9883H39.4844V33.8054H42.3045V30.9883Z" fill="white"/>
<path d="M42.3045 25.354H39.4844V28.1711H42.3045V25.354Z" fill="white"/>
<path d="M42.3045 45.0742H39.4844V47.8913H42.3045V45.0742Z" fill="white"/>
<path d="M45.1229 19.7197H42.3027V22.5368H45.1229V19.7197Z" fill="white"/>
<path d="M45.1229 14.0854H42.3027V16.9026H45.1229V14.0854Z" fill="white"/>
<path d="M45.1229 53.5259H42.3027V56.343H45.1229V53.5259Z" fill="white"/>
<path d="M45.1229 30.9883H42.3027V33.8054H45.1229V30.9883Z" fill="white"/>
<path d="M45.1229 50.708H42.3027V53.5251H45.1229V50.708Z" fill="white"/>
<path d="M45.1229 47.8911H42.3027V50.7082H45.1229V47.8911Z" fill="white"/>
<path d="M47.9432 19.7197H45.123V22.5368H47.9432V19.7197Z" fill="white"/>
<path d="M47.9432 14.0854H45.123V16.9026H47.9432V14.0854Z" fill="white"/>
<path d="M47.9432 53.5259H45.123V56.343H47.9432V53.5259Z" fill="white"/>
<path d="M47.9432 30.9883H45.123V33.8054H47.9432V30.9883Z" fill="white"/>
<path d="M47.9432 50.708H45.123V53.5251H47.9432V50.708Z" fill="white"/>
<path d="M47.9432 47.8911H45.123V50.7082H47.9432V47.8911Z" fill="white"/>
<path d="M50.7654 22.5371H47.9453V25.3542H50.7654V22.5371Z" fill="white"/>
<path d="M50.7654 19.7197H47.9453V22.5368H50.7654V19.7197Z" fill="white"/>
<path d="M50.7654 14.0854H47.9453V16.9026H50.7654V14.0854Z" fill="white"/>
<path d="M50.7654 16.9028H47.9453V19.72H50.7654V16.9028Z" fill="white"/>
<path d="M50.7654 30.9883H47.9453V33.8054H50.7654V30.9883Z" fill="white"/>
<path d="M50.7654 25.354H47.9453V28.1711H50.7654V25.354Z" fill="white"/>
<path d="M42.3045 11.269H39.4844V14.0862H42.3045V11.269Z" fill="white"/>
<path d="M50.7654 11.269H47.9453V14.0862H50.7654V11.269Z" fill="white"/>
<path d="M53.5838 30.9883H50.7637V33.8054H53.5838V30.9883Z" fill="white"/>
<path d="M53.5838 36.6226H50.7637V39.4397H53.5838V36.6226Z" fill="white"/>
<path d="M53.5838 33.8052H50.7637V36.6223H53.5838V33.8052Z" fill="white"/>
<path d="M53.5838 39.4395H50.7637V42.2566H53.5838V39.4395Z" fill="white"/>
<path d="M39.4822 30.9883H36.6621V33.8054H39.4822V30.9883Z" fill="white"/>
<path d="M39.4822 36.6226H36.6621V39.4397H39.4822V36.6226Z" fill="white"/>
<path d="M39.4822 33.8052H36.6621V36.6223H39.4822V33.8052Z" fill="white"/>
<path d="M39.4822 39.4395H36.6621V42.2566H39.4822V39.4395Z" fill="white"/>
<path d="M56.4061 50.708H53.5859V53.5251H56.4061V50.708Z" fill="white"/>
<path d="M56.4061 47.8911H53.5859V50.7082H56.4061V47.8911Z" fill="white"/>
<path d="M56.4061 45.0742H53.5859V47.8913H56.4061V45.0742Z" fill="white"/>
<path d="M56.4061 42.2568H53.5859V45.074H56.4061V42.2568Z" fill="white"/>
<path d="M56.4061 53.5259H53.5859V56.343H56.4061V53.5259Z" fill="white"/>
<path d="M53.5838 42.2568H50.7637V45.074H53.5838V42.2568Z" fill="white"/>
<path d="M39.4822 42.2568H36.6621V45.074H39.4822V42.2568Z" fill="white"/>
<path d="M36.6639 50.708H33.8438V53.5251H36.6639V50.708Z" fill="white"/>
<path d="M36.6639 47.8911H33.8438V50.7082H36.6639V47.8911Z" fill="white"/>
<path d="M36.6639 45.0742H33.8438V47.8913H36.6639V45.0742Z" fill="white"/>
<path d="M36.6639 42.2568H33.8438V45.074H36.6639V42.2568Z" fill="white"/>
<path d="M36.6639 53.5259H33.8438V56.343H36.6639V53.5259Z" fill="white"/>
<path d="M36.6639 98.5991H33.8438V101.416H36.6639V98.5991Z" fill="white"/>
<path d="M39.4822 98.5991H36.6621V101.416H39.4822V98.5991Z" fill="white"/>
<path d="M42.3045 98.5991H39.4844V101.416H42.3045V98.5991Z" fill="white"/>
<path d="M45.1229 98.5991H42.3027V101.416H45.1229V98.5991Z" fill="white"/>
<path d="M47.9432 98.5991H45.123V101.416H47.9432V98.5991Z" fill="white"/>
<path d="M50.7654 98.5991H47.9453V101.416H50.7654V98.5991Z" fill="white"/>
<path d="M53.5838 98.5991H50.7637V101.416H53.5838V98.5991Z" fill="white"/>
<path d="M56.4061 98.5991H53.5859V101.416H56.4061V98.5991Z" fill="white"/>
<path d="M36.6639 101.417H33.8438V104.234H36.6639V101.417Z" fill="white"/>
<path d="M39.4822 101.417H36.6621V104.234H39.4822V101.417Z" fill="white"/>
<path d="M53.5838 101.417H50.7637V104.234H53.5838V101.417Z" fill="white"/>
<path d="M56.4061 101.417H53.5859V104.234H56.4061V101.417Z" fill="white"/>
<path d="M53.5838 107.05H50.7637V109.867H53.5838V107.05Z" fill="white"/>
<path d="M50.7654 107.05H47.9453V109.867H50.7654V107.05Z" fill="white"/>
<path d="M42.3045 107.05H39.4844V109.867H42.3045V107.05Z" fill="white"/>
<path d="M39.4822 107.05H36.6621V109.867H39.4822V107.05Z" fill="white"/>
<path d="M53.5838 104.233H50.7637V107.051H53.5838V104.233Z" fill="white"/>
<path d="M50.7654 104.233H47.9453V107.051H50.7654V104.233Z" fill="white"/>
<path d="M47.9432 104.233H45.123V107.051H47.9432V104.233Z" fill="white"/>
<path d="M45.1229 104.233H42.3027V107.051H45.1229V104.233Z" fill="white"/>
<path d="M42.3045 104.233H39.4844V107.051H42.3045V104.233Z" fill="white"/>
<path d="M39.4822 104.233H36.6621V107.051H39.4822V104.233Z" fill="white"/>
<path d="M67.6854 67.6113H64.8652V70.4285H67.6854V67.6113Z" fill="white"/>
<path d="M62.0447 84.5137H59.2246V87.3308H62.0447V84.5137Z" fill="white"/>
<path d="M62.0447 81.6968H59.2246V84.5139H62.0447V81.6968Z" fill="white"/>
<path d="M62.0447 78.8794H59.2246V81.6965H62.0447V78.8794Z" fill="white"/>
<path d="M62.0447 76.062H59.2246V78.8791H62.0447V76.062Z" fill="white"/>
<path d="M62.0447 67.6113H59.2246V70.4285H62.0447V67.6113Z" fill="white"/>
<path d="M62.0447 92.9648H59.2246V95.782H62.0447V92.9648Z" fill="white"/>
<path d="M62.0447 90.1479H59.2246V92.9651H62.0447V90.1479Z" fill="white"/>
<path d="M62.0447 87.3311H59.2246V90.1482H62.0447V87.3311Z" fill="white"/>
<path d="M64.867 95.7827H62.0469V98.5998H64.867V95.7827Z" fill="white"/>
<path d="M64.867 84.5137H62.0469V87.3308H64.867V84.5137Z" fill="white"/>
<path d="M64.867 81.6968H62.0469V84.5139H64.867V81.6968Z" fill="white"/>
<path d="M64.867 78.8794H62.0469V81.6965H64.867V78.8794Z" fill="white"/>
<path d="M64.867 92.9648H62.0469V95.782H64.867V92.9648Z" fill="white"/>
<path d="M64.867 90.1479H62.0469V92.9651H64.867V90.1479Z" fill="white"/>
<path d="M64.867 87.3311H62.0469V90.1482H64.867V87.3311Z" fill="white"/>
<path d="M67.6854 95.7827H64.8652V98.5998H67.6854V95.7827Z" fill="white"/>
<path d="M67.6854 84.5137H64.8652V87.3308H67.6854V84.5137Z" fill="white"/>
<path d="M67.6854 81.6968H64.8652V84.5139H67.6854V81.6968Z" fill="white"/>
<path d="M67.6854 73.2456H64.8652V76.0627H67.6854V73.2456Z" fill="white"/>
<path d="M67.6854 70.4277H64.8652V73.2449H67.6854V70.4277Z" fill="white"/>
<path d="M67.6854 92.9648H64.8652V95.782H67.6854V92.9648Z" fill="white"/>
<path d="M67.6854 90.1479H64.8652V92.9651H67.6854V90.1479Z" fill="white"/>
<path d="M67.6854 87.3311H64.8652V90.1482H67.6854V87.3311Z" fill="white"/>
<path d="M81.7869 107.05H78.9668V109.867H81.7869V107.05Z" fill="white"/>
<path d="M78.9686 104.233H76.1484V107.051H78.9686V104.233Z" fill="white"/>
<path d="M76.1463 101.417H73.3262V104.234H76.1463V101.417Z" fill="white"/>
<path d="M73.326 101.417H70.5059V104.234H73.326V101.417Z" fill="white"/>
<path d="M78.9686 101.417H76.1484V104.234H78.9686V101.417Z" fill="white"/>
<path d="M70.5057 98.5991H67.6855V101.416H70.5057V98.5991Z" fill="white"/>
<path d="M76.1463 98.5991H73.3262V101.416H76.1463V98.5991Z" fill="white"/>
<path d="M73.326 98.5991H70.5059V101.416H73.326V98.5991Z" fill="white"/>
<path d="M78.9686 87.3311H76.1484V90.1482H78.9686V87.3311Z" fill="white"/>
<path d="M76.1463 81.6968H73.3262V84.5139H76.1463V81.6968Z" fill="white"/>
<path d="M76.1463 76.062H73.3262V78.8791H76.1463V76.062Z" fill="white"/>
<path d="M76.1463 78.8794H73.3262V81.6965H76.1463V78.8794Z" fill="white"/>
<path d="M76.1463 73.2456H73.3262V76.0627H76.1463V73.2456Z" fill="white"/>
<path d="M76.1463 95.7827H73.3262V98.5998H76.1463V95.7827Z" fill="white"/>
<path d="M76.1463 92.9648H73.3262V95.782H76.1463V92.9648Z" fill="white"/>
<path d="M76.1463 90.1479H73.3262V92.9651H76.1463V90.1479Z" fill="white"/>
<path d="M73.326 78.8794H70.5059V81.6965H73.326V78.8794Z" fill="white"/>
<path d="M73.326 73.2456H70.5059V76.0627H73.326V73.2456Z" fill="white"/>
<path d="M73.326 95.7827H70.5059V98.5998H73.326V95.7827Z" fill="white"/>
<path d="M73.326 92.9648H70.5059V95.782H73.326V92.9648Z" fill="white"/>
<path d="M73.326 87.3311H70.5059V90.1482H73.326V87.3311Z" fill="white"/>
<path d="M73.326 90.1479H70.5059V92.9651H73.326V90.1479Z" fill="white"/>
<path d="M70.5057 84.5137H67.6855V87.3308H70.5057V84.5137Z" fill="white"/>
<path d="M70.5057 76.062H67.6855V78.8791H70.5057V76.062Z" fill="white"/>
<path d="M70.5057 73.2456H67.6855V76.0627H70.5057V73.2456Z" fill="white"/>
<path d="M70.5057 95.7827H67.6855V98.5998H70.5057V95.7827Z" fill="white"/>
<path d="M70.5057 92.9648H67.6855V95.782H70.5057V92.9648Z" fill="white"/>
<path d="M70.5057 87.3311H67.6855V90.1482H70.5057V87.3311Z" fill="white"/>
<path d="M70.5057 90.1479H67.6855V92.9651H70.5057V90.1479Z" fill="white"/>
<path d="M73.326 67.6113H70.5059V70.4285H73.326V67.6113Z" fill="white"/>
<path d="M73.326 61.9766H70.5059V64.7937H73.326V61.9766Z" fill="white"/>
<path d="M73.326 64.7935H70.5059V67.6106H73.326V64.7935Z" fill="white"/>
<path d="M70.5057 70.4277H67.6855V73.2449H70.5057V70.4277Z" fill="white"/>
<path d="M70.5057 67.6113H67.6855V70.4285H70.5057V67.6113Z" fill="white"/>
<path d="M70.5057 64.7935H67.6855V67.6106H70.5057V64.7935Z" fill="white"/>
<path d="M36.6639 126.771H33.8438V129.588H36.6639V126.771Z" fill="white"/>
<path d="M36.6639 129.588H33.8438V132.405H36.6639V129.588Z" fill="white"/>
<path d="M56.4061 126.771H53.5859V129.588H56.4061V126.771Z" fill="white"/>
<path d="M56.4061 129.588H53.5859V132.405H56.4061V129.588Z" fill="white"/>
<path d="M53.5838 132.404H50.7637V135.221H53.5838V132.404Z" fill="white"/>
<path d="M47.9432 132.404H45.123V135.221H47.9432V132.404Z" fill="white"/>
<path d="M45.1229 132.404H42.3027V135.221H45.1229V132.404Z" fill="white"/>
<path d="M42.3045 132.404H39.4844V135.221H42.3045V132.404Z" fill="white"/>
<path d="M42.3045 118.319H39.4844V121.136H42.3045V118.319Z" fill="white"/>
<path d="M47.9432 118.319H45.123V121.136H47.9432V118.319Z" fill="white"/>
<path d="M50.7654 118.319H47.9453V121.136H50.7654V118.319Z" fill="white"/>
<path d="M39.4822 121.136H36.6621V123.953H39.4822V121.136Z" fill="white"/>
<path d="M42.3045 121.136H39.4844V123.953H42.3045V121.136Z" fill="white"/>
<path d="M50.7654 121.136H47.9453V123.953H50.7654V121.136Z" fill="white"/>
<path d="M39.4822 123.954H36.6621V126.771H39.4822V123.954Z" fill="white"/>
<path d="M42.3045 123.954H39.4844V126.771H42.3045V123.954Z" fill="white"/>
<path d="M45.1229 123.954H42.3027V126.771H45.1229V123.954Z" fill="white"/>
<path d="M53.5838 123.954H50.7637V126.771H53.5838V123.954Z" fill="white"/>
<path d="M53.5838 129.588H50.7637V132.405H53.5838V129.588Z" fill="white"/>
<path d="M47.9432 129.588H45.123V132.405H47.9432V129.588Z" fill="white"/>
<path d="M45.1229 129.588H42.3027V132.405H45.1229V129.588Z" fill="white"/>
<path d="M53.5838 126.771H50.7637V129.588H53.5838V126.771Z" fill="white"/>
<path d="M50.7654 126.771H47.9453V129.588H50.7654V126.771Z" fill="white"/>
<path d="M47.9432 126.771H45.123V129.588H47.9432V126.771Z" fill="white"/>
<path d="M45.1229 126.771H42.3027V129.588H45.1229V126.771Z" fill="white"/>
<path d="M39.4822 126.771H36.6621V129.588H39.4822V126.771Z" fill="white"/>
<path d="M42.3045 138.039H39.4844V140.856H42.3045V138.039Z" fill="white"/>
<path d="M45.1229 135.222H42.3027V138.039H45.1229V135.222Z" fill="white"/>
<path d="M42.3045 135.222H39.4844V138.039H42.3045V135.222Z" fill="white"/>
<path d="M45.1229 138.039H42.3027V140.856H45.1229V138.039Z" fill="white"/>
<path d="M42.3045 140.856H39.4844V143.673H42.3045V140.856Z" fill="white"/>
<path d="M5.64043 115.502H2.82031L2.82031 118.32H5.64043V115.502Z" fill="white"/>
<path d="M8.46074 115.502H5.64062L5.64063 118.32H8.46074V115.502Z" fill="white"/>
<path d="M11.2791 115.502H8.45898V118.32H11.2791V115.502Z" fill="white"/>
<path d="M2.82012 118.319H0L0 121.136H2.82012L2.82012 118.319Z" fill="white"/>
<path d="M5.64043 118.319H2.82031L2.82031 121.136H5.64043V118.319Z" fill="white"/>
<path d="M8.46074 118.319H5.64062L5.64063 121.136H8.46074V118.319Z" fill="white"/>
<path d="M11.2791 118.319H8.45898V121.136H11.2791V118.319Z" fill="white"/>
<path d="M8.46074 121.136H5.64062L5.64063 123.953H8.46074V121.136Z" fill="white"/>
<path d="M11.2791 121.136H8.45898V123.953H11.2791V121.136Z" fill="white"/>
<path d="M8.46074 126.771H5.64062L5.64063 129.588H8.46074V126.771Z" fill="white"/>
<path d="M5.64043 126.771H2.82031L2.82031 129.588H5.64043V126.771Z" fill="white"/>
<path d="M11.2791 123.954H8.45898V126.771H11.2791V123.954Z" fill="white"/>
<path d="M8.46074 123.954H5.64062L5.64063 126.771H8.46074V123.954Z" fill="white"/>
<path d="M5.64043 123.954H2.82031L2.82031 126.771H5.64043V123.954Z" fill="white"/>
<path d="M2.82012 132.404H0L0 135.221H2.82012L2.82012 132.404Z" fill="white"/>
<path d="M5.64043 129.588H2.82031L2.82031 132.405H5.64043V129.588Z" fill="white"/>
<path d="M2.82012 129.588H0L0 132.405H2.82012L2.82012 129.588Z" fill="white"/>
<path d="M14.1014 126.771H11.2812V129.588H14.1014V126.771Z" fill="white"/>
<path d="M87.4275 115.502H84.6074V118.32H87.4275V115.502Z" fill="white"/>
<path d="M84.6072 115.502H81.7871V118.32H84.6072V115.502Z" fill="white"/>
<path d="M81.7869 115.502H78.9668V118.32H81.7869V115.502Z" fill="white"/>
<path d="M90.2478 118.319H87.4277V121.136H90.2478V118.319Z" fill="white"/>
<path d="M87.4275 118.319H84.6074V121.136H87.4275V118.319Z" fill="white"/>
<path d="M84.6072 118.319H81.7871V121.136H84.6072V118.319Z" fill="white"/>
<path d="M81.7869 118.319H78.9668V121.136H81.7869V118.319Z" fill="white"/>
<path d="M84.6072 121.136H81.7871V123.953H84.6072V121.136Z" fill="white"/>
<path d="M81.7869 121.136H78.9668V123.953H81.7869V121.136Z" fill="white"/>
<path d="M84.6072 126.771H81.7871V129.588H84.6072V126.771Z" fill="white"/>
<path d="M87.4275 126.771H84.6074V129.588H87.4275V126.771Z" fill="white"/>
<path d="M81.7869 123.954H78.9668V126.771H81.7869V123.954Z" fill="white"/>
<path d="M84.6072 123.954H81.7871V126.771H84.6072V123.954Z" fill="white"/>
<path d="M87.4275 123.954H84.6074V126.771H87.4275V123.954Z" fill="white"/>
<path d="M84.6072 135.222H81.7871V138.039H84.6072V135.222Z" fill="white"/>
<path d="M87.4275 129.588H84.6074V132.405H87.4275V129.588Z" fill="white"/>
<path d="M87.4275 132.404H84.6074V135.221H87.4275V132.404Z" fill="white"/>
<path d="M78.9686 126.771H76.1484V129.588H78.9686V126.771Z" fill="white"/>
<path d="M90.2478 126.771H87.4277V129.588H90.2478V126.771Z" fill="white"/>
<path d="M90.2478 129.588H87.4277V132.405H90.2478V129.588Z" fill="white"/>
<path d="M19.742 56.3423H16.9219V59.1594H19.742V56.3423Z" fill="white"/>
<path d="M73.326 56.3423H70.5059V59.1594H73.326V56.3423Z" fill="white"/>
<path d="M19.742 50.708H16.9219V53.5251H19.742V50.708Z" fill="white"/>
<path d="M19.742 47.8911H16.9219V50.7082H19.742V47.8911Z" fill="white"/>
<path d="M19.742 45.0742H16.9219V47.8913H19.742V45.0742Z" fill="white"/>
<path d="M19.742 42.2568H16.9219V45.074H19.742V42.2568Z" fill="white"/>
<path d="M19.742 39.4395H16.9219V42.2566H19.742V39.4395Z" fill="white"/>
<path d="M19.742 36.6226H16.9219V39.4397H19.742V36.6226Z" fill="white"/>
<path d="M19.742 33.8052H16.9219V36.6223H19.742V33.8052Z" fill="white"/>
<path d="M19.742 30.9883H16.9219V33.8054H19.742V30.9883Z" fill="white"/>
<path d="M19.742 28.1714H16.9219V30.9885H19.742V28.1714Z" fill="white"/>
<path d="M19.742 25.354H16.9219V28.1711H19.742V25.354Z" fill="white"/>
<path d="M19.742 22.5371H16.9219V25.3542H19.742V22.5371Z" fill="white"/>
<path d="M19.742 19.7197H16.9219V22.5368H19.742V19.7197Z" fill="white"/>
<path d="M19.742 16.9028H16.9219V19.72H19.742V16.9028Z" fill="white"/>
<path d="M19.742 14.0854H16.9219V16.9026H19.742V14.0854Z" fill="white"/>
<path d="M19.742 11.269H16.9219V14.0862H19.742V11.269Z" fill="white"/>
<path d="M19.742 8.45117H16.9219V11.2683H19.742V8.45117Z" fill="white"/>
<path d="M19.742 5.63428L16.9219 5.63428V8.4514H19.742V5.63428Z" fill="white"/>
<path d="M19.742 2.81641L16.9219 2.81641V5.63353H19.742V2.81641Z" fill="white"/>
<path d="M19.742 0L16.9219 0V2.81712L19.742 2.81712V0Z" fill="white"/>
<path d="M73.326 50.708H70.5059V53.5251H73.326V50.708Z" fill="white"/>
<path d="M73.326 47.8911H70.5059V50.7082H73.326V47.8911Z" fill="white"/>
<path d="M73.326 45.0742H70.5059V47.8913H73.326V45.0742Z" fill="white"/>
<path d="M73.326 42.2568H70.5059V45.074H73.326V42.2568Z" fill="white"/>
<path d="M73.326 39.4395H70.5059V42.2566H73.326V39.4395Z" fill="white"/>
<path d="M73.326 36.6226H70.5059V39.4397H73.326V36.6226Z" fill="white"/>
<path d="M73.326 33.8052H70.5059V36.6223H73.326V33.8052Z" fill="white"/>
<path d="M73.326 30.9883H70.5059V33.8054H73.326V30.9883Z" fill="white"/>
<path d="M73.326 28.1714H70.5059V30.9885H73.326V28.1714Z" fill="white"/>
<path d="M73.326 25.354H70.5059V28.1711H73.326V25.354Z" fill="white"/>
<path d="M73.326 22.5371H70.5059V25.3542H73.326V22.5371Z" fill="white"/>
<path d="M73.326 19.7197H70.5059V22.5368H73.326V19.7197Z" fill="white"/>
<path d="M73.326 16.9028H70.5059V19.72H73.326V16.9028Z" fill="white"/>
<path d="M73.326 14.0854H70.5059V16.9026H73.326V14.0854Z" fill="white"/>
<path d="M73.326 11.269H70.5059V14.0862H73.326V11.269Z" fill="white"/>
<path d="M73.326 8.45117H70.5059V11.2683H73.326V8.45117Z" fill="white"/>
<path d="M73.326 5.63428L70.5059 5.63428V8.4514H73.326V5.63428Z" fill="white"/>
<path d="M73.326 2.81641L70.5059 2.81641V5.63353H73.326V2.81641Z" fill="white"/>
<path d="M73.326 0L70.5059 0V2.81712L73.326 2.81712V0Z" fill="white"/>
<path d="M70.5057 47.8911H67.6855V50.7082H70.5057V47.8911Z" fill="white"/>
<path d="M68.2498 45.0742H65.4297V47.8913H68.2498V45.0742Z" fill="white"/>
<path d="M76.1463 47.8911H73.3262V50.7082H76.1463V47.8911Z" fill="white"/>
<path d="M78.9686 42.2568H76.1484V45.074H78.9686V42.2568Z" fill="white"/>
<path d="M22.5623 47.8911H19.7422V50.7082H22.5623V47.8911Z" fill="white"/>
<path d="M14.1014 47.8911H11.2812V50.7082H14.1014V47.8911Z" fill="white"/>
<path d="M25.3807 45.0742H22.5605V47.8913H25.3807V45.0742Z" fill="white"/>
<path d="M50.7654 45.0742H47.9453V47.8913H50.7654V45.0742Z" fill="white"/>
<path d="M42.3045 42.2568H39.4844V45.074H42.3045V42.2568Z" fill="white"/>
<path d="M45.1229 45.0742H42.3027V47.8913H45.1229V45.0742Z" fill="white"/>
<path d="M50.7654 42.2568H47.9453V45.074H50.7654V42.2568Z" fill="white"/>
<path d="M47.9432 45.0742H45.123V47.8913H47.9432V45.0742Z" fill="white"/>
<path d="M33.8436 53.5259H31.0234V56.343H33.8436V53.5259Z" fill="white"/>
<path d="M59.2264 53.5259H56.4062V56.343H59.2264V53.5259Z" fill="white"/>
<path d="M53.5838 70.4277H50.7637V73.2449H53.5838V70.4277Z" fill="white"/>
<path d="M39.4822 70.4277H36.6621V73.2449H39.4822V70.4277Z" fill="white"/>
<path d="M39.4822 78.8794H36.6621V81.6965H39.4822V78.8794Z" fill="white"/>
<path d="M39.4822 84.5137H36.6621V87.3308H39.4822V84.5137Z" fill="white"/>
<path d="M53.5838 84.5137H50.7637V87.3308H53.5838V84.5137Z" fill="white"/>
<path d="M53.5838 78.8794H50.7637V81.6965H53.5838V78.8794Z" fill="white"/>
<path d="M36.6639 87.3311H33.8438V90.1482H36.6639V87.3311Z" fill="white"/>
<path d="M56.4061 87.3311H53.5859V90.1482H56.4061V87.3311Z" fill="white"/>
<path d="M50.7654 112.685H47.9453V115.502H50.7654V112.685Z" fill="white"/>
<path d="M47.9432 112.685H45.123V115.502H47.9432V112.685Z" fill="white"/>
<path d="M45.1229 112.685H42.3027V115.502H45.1229V112.685Z" fill="white"/>
<path d="M42.3045 112.685H39.4844V115.502H42.3045V112.685Z" fill="white"/>
<path d="M50.7654 123.954H47.9453V126.771H50.7654V123.954Z" fill="white"/>
<path d="M42.3045 28.1714H39.4844V30.9885H42.3045V28.1714Z" fill="white"/>
<path d="M50.7654 28.1714H47.9453V30.9885H50.7654V28.1714Z" fill="white"/>
<path d="M47.9432 11.269H45.123V14.0862H47.9432V11.269Z" fill="white"/>
<path d="M45.1229 11.269H42.3027V14.0862H45.1229V11.269Z" fill="white"/>
<path d="M45.1229 28.1714H42.3027V30.9885H45.1229V28.1714Z" fill="white"/>
<path d="M47.9432 28.1714H45.123V30.9885H47.9432V28.1714Z" fill="white"/>
<path d="M62.0447 73.2456H59.2246V76.0627H62.0447V73.2456Z" fill="white"/>
<path d="M62.0447 70.4277H59.2246V73.2449H62.0447V70.4277Z" fill="white"/>
<path d="M31.0213 73.2456H28.2012V76.0627H31.0213V73.2456Z" fill="white"/>
<path d="M31.0213 70.4277H28.2012V73.2449H31.0213V70.4277Z" fill="white"/>
<path d="M76.1463 84.5137H73.3262V87.3308H76.1463V84.5137Z" fill="white"/>
<path d="M67.6854 76.062H64.8652V78.8791H67.6854V76.062Z" fill="white"/>
<path d="M73.326 81.6968H70.5059V84.5139H73.326V81.6968Z" fill="white"/>
<path d="M70.5057 78.8794H67.6855V81.6965H70.5057V78.8794Z" fill="white"/>
<path d="M25.3807 76.062H22.5605V78.8791H25.3807V76.062Z" fill="white"/>
<path d="M16.9217 84.5137H14.1016V87.3308H16.9217V84.5137Z" fill="white"/>
<path d="M19.742 81.6968H16.9219V84.5139H19.742V81.6968Z" fill="white"/>
<path d="M22.5623 78.8794H19.7422V81.6965H22.5623V78.8794Z" fill="white"/>
<path d="M11.2791 104.233H8.45898V107.051H11.2791V104.233Z" fill="white"/>
<path d="M11.2791 101.417H8.45898V104.234H11.2791V101.417Z" fill="white"/>
<path d="M81.7869 104.233H78.9668V107.051H81.7869V104.233Z" fill="white"/>
<path d="M81.7869 101.417H78.9668V104.234H81.7869V101.417Z" fill="white"/>
<path d="M78.9686 95.7827H76.1484V98.5998H78.9686V95.7827Z" fill="white"/>
<path d="M78.9686 92.9648H76.1484V95.782H78.9686V92.9648Z" fill="white"/>
<path d="M14.1014 95.7827H11.2812V98.5998H14.1014V95.7827Z" fill="white"/>
<path d="M14.1014 92.9648H11.2812V95.782H14.1014V92.9648Z" fill="white"/>
</svg>
