<svg width="209" height="55" viewBox="0 0 209 55" fill="none" xmlns="http://www.w3.org/2000/svg">
<g clip-path="url(#clip0)">
<path d="M0 27.3926V26.8632L13.174 26.3338C16.5466 26.2279 17.8113 25.5926 15.2819 22.6279L9.90686 16.169L10.3284 15.7455L16.652 21.0396C19.1814 23.1573 20.4461 23.1573 20.4461 19.5573L20.973 0.392578H21.5H22.027L22.5539 19.5573C22.6593 23.1573 23.924 23.1573 26.348 21.0396L32.6716 15.7455L33.0931 16.169L27.7181 22.6279C25.1887 25.6985 26.4534 26.2279 29.826 26.3338L43 26.8632V27.3926V27.922L29.826 28.4514C26.4534 28.5573 25.1887 29.1926 27.7181 32.1573L33.0931 38.6161L32.6716 39.0396L26.348 33.7455C23.8186 31.6279 22.5539 31.6279 22.5539 35.2279L22.027 54.3926H21.5H20.973L20.4461 35.2279C20.3407 31.6279 19.076 31.6279 16.652 33.7455L10.3284 39.0396L9.90686 38.6161L15.2819 32.1573C17.8113 29.0867 16.5466 28.5573 13.174 28.4514L0 27.922V27.3926Z" fill="white"/>
</g>
<path d="M77.1052 29.3926L76.6248 27.7168H76.4373C76.0544 28.3262 75.5115 28.7988 74.8083 29.1348C74.1052 29.4629 73.3044 29.627 72.406 29.627C70.8669 29.627 69.7068 29.2168 68.9255 28.3965C68.1443 27.5684 67.7537 26.3809 67.7537 24.834V16.291H71.3279V23.9434C71.3279 24.8887 71.4958 25.5996 71.8318 26.0762C72.1677 26.5449 72.7029 26.7793 73.4373 26.7793C74.4373 26.7793 75.1599 26.4473 75.6052 25.7832C76.0505 25.1113 76.2732 24.002 76.2732 22.4551V16.291H79.8474V29.3926H77.1052ZM87.1716 29.3926H83.5974V11.1582H87.1716V29.3926ZM96.4529 26.7793C97.0779 26.7793 97.8279 26.6426 98.7029 26.3691V29.0293C97.8123 29.4277 96.7185 29.627 95.4216 29.627C93.9919 29.627 92.949 29.2676 92.2927 28.5488C91.6443 27.8223 91.3201 26.7363 91.3201 25.291V18.9746H89.6091V17.4629L91.5779 16.2676L92.6091 13.502H94.8943V16.291H98.5623V18.9746H94.8943V25.291C94.8943 25.7988 95.0349 26.1738 95.3162 26.416C95.6052 26.6582 95.9841 26.7793 96.4529 26.7793ZM101.211 12.9043C101.211 11.7402 101.859 11.1582 103.156 11.1582C104.453 11.1582 105.101 11.7402 105.101 12.9043C105.101 13.459 104.937 13.8926 104.609 14.2051C104.289 14.5098 103.804 14.6621 103.156 14.6621C101.859 14.6621 101.211 14.0762 101.211 12.9043ZM104.937 29.3926H101.363V16.291H104.937V29.3926ZM120.429 29.3926H116.855V21.7402C116.855 20.7949 116.695 20.0879 116.375 19.6191C116.062 19.1426 115.566 18.9043 114.886 18.9043C113.972 18.9043 113.308 19.2402 112.894 19.9121C112.48 20.584 112.273 21.6895 112.273 23.2285V29.3926H108.699V16.291H111.429L111.91 17.9668H112.109C112.461 17.3652 112.969 16.8965 113.633 16.5605C114.297 16.2168 115.058 16.0449 115.918 16.0449C117.879 16.0449 119.207 16.6855 119.902 17.9668H120.219C120.57 17.3574 121.086 16.8848 121.765 16.5488C122.453 16.2129 123.226 16.0449 124.086 16.0449C125.57 16.0449 126.691 16.4277 127.449 17.1934C128.215 17.9512 128.597 19.1699 128.597 20.8496V29.3926H125.011V21.7402C125.011 20.7949 124.851 20.0879 124.531 19.6191C124.219 19.1426 123.722 18.9043 123.043 18.9043C122.168 18.9043 121.511 19.2168 121.074 19.8418C120.644 20.4668 120.429 21.459 120.429 22.8184V29.3926ZM140.597 29.3926L139.906 27.6113H139.812C139.211 28.3691 138.59 28.8965 137.949 29.1934C137.316 29.4824 136.488 29.627 135.465 29.627C134.207 29.627 133.215 29.2676 132.488 28.5488C131.769 27.8301 131.41 26.8066 131.41 25.4785C131.41 24.0879 131.894 23.0645 132.863 22.4082C133.84 21.7441 135.308 21.377 137.269 21.3066L139.543 21.2363V20.6621C139.543 19.334 138.863 18.6699 137.504 18.6699C136.457 18.6699 135.226 18.9863 133.812 19.6191L132.629 17.2051C134.136 16.416 135.808 16.0215 137.644 16.0215C139.402 16.0215 140.75 16.4043 141.687 17.1699C142.625 17.9355 143.094 19.0996 143.094 20.6621V29.3926H140.597ZM139.543 23.3223L138.16 23.3691C137.121 23.4004 136.347 23.5879 135.84 23.9316C135.332 24.2754 135.078 24.7988 135.078 25.502C135.078 26.5098 135.656 27.0137 136.812 27.0137C137.64 27.0137 138.301 26.7754 138.793 26.2988C139.293 25.8223 139.543 25.1895 139.543 24.4004V23.3223ZM152.304 26.7793C152.929 26.7793 153.679 26.6426 154.554 26.3691V29.0293C153.664 29.4277 152.57 29.627 151.273 29.627C149.844 29.627 148.801 29.2676 148.144 28.5488C147.496 27.8223 147.172 26.7363 147.172 25.291V18.9746H145.461V17.4629L147.429 16.2676L148.461 13.502H150.746V16.291H154.414V18.9746H150.746V25.291C150.746 25.7988 150.886 26.1738 151.168 26.416C151.457 26.6582 151.836 26.7793 152.304 26.7793ZM162.64 18.5879C161.883 18.5879 161.289 18.8301 160.859 19.3145C160.429 19.791 160.183 20.4707 160.121 21.3535H165.136C165.121 20.4707 164.89 19.791 164.445 19.3145C164 18.8301 163.398 18.5879 162.64 18.5879ZM163.144 29.627C161.035 29.627 159.386 29.0449 158.199 27.8809C157.011 26.7168 156.418 25.0684 156.418 22.9355C156.418 20.7402 156.965 19.0449 158.058 17.8496C159.16 16.6465 160.679 16.0449 162.617 16.0449C164.469 16.0449 165.91 16.5723 166.941 17.627C167.972 18.6816 168.488 20.1387 168.488 21.998V23.7324H160.039C160.078 24.748 160.379 25.541 160.941 26.1113C161.504 26.6816 162.293 26.9668 163.308 26.9668C164.097 26.9668 164.844 26.8848 165.547 26.7207C166.25 26.5566 166.984 26.2949 167.75 25.9355V28.7012C167.125 29.0137 166.457 29.2441 165.746 29.3926C165.035 29.5488 164.168 29.627 163.144 29.627ZM178.707 16.0449C179.191 16.0449 179.594 16.0801 179.914 16.1504L179.644 19.502C179.355 19.4238 179.004 19.3848 178.59 19.3848C177.449 19.3848 176.558 19.6777 175.918 20.2637C175.285 20.8496 174.969 21.6699 174.969 22.7246V29.3926H171.394V16.291H174.101L174.629 18.4941H174.804C175.211 17.7598 175.758 17.1699 176.445 16.7246C177.14 16.2715 177.894 16.0449 178.707 16.0449ZM189.605 16.0449C190.09 16.0449 190.492 16.0801 190.812 16.1504L190.543 19.502C190.254 19.4238 189.902 19.3848 189.488 19.3848C188.347 19.3848 187.457 19.6777 186.816 20.2637C186.183 20.8496 185.867 21.6699 185.867 22.7246V29.3926H182.293V16.291H185L185.527 18.4941H185.703C186.109 17.7598 186.656 17.1699 187.344 16.7246C188.039 16.2715 188.793 16.0449 189.605 16.0449ZM201.511 29.3926L200.82 27.6113H200.726C200.125 28.3691 199.504 28.8965 198.863 29.1934C198.23 29.4824 197.402 29.627 196.379 29.627C195.121 29.627 194.129 29.2676 193.402 28.5488C192.683 27.8301 192.324 26.8066 192.324 25.4785C192.324 24.0879 192.808 23.0645 193.777 22.4082C194.754 21.7441 196.222 21.377 198.183 21.3066L200.457 21.2363V20.6621C200.457 19.334 199.777 18.6699 198.418 18.6699C197.371 18.6699 196.14 18.9863 194.726 19.6191L193.543 17.2051C195.051 16.416 196.722 16.0215 198.558 16.0215C200.316 16.0215 201.664 16.4043 202.601 17.1699C203.539 17.9355 204.008 19.0996 204.008 20.6621V29.3926H201.511ZM200.457 23.3223L199.074 23.3691C198.035 23.4004 197.261 23.5879 196.754 23.9316C196.246 24.2754 195.992 24.7988 195.992 25.502C195.992 26.5098 196.57 27.0137 197.726 27.0137C198.554 27.0137 199.215 26.7754 199.707 26.2988C200.207 25.8223 200.457 25.1895 200.457 24.4004V23.3223Z" fill="white"/>
<g clip-path="url(#clip1)">
<path d="M72.7919 37.4808C71.651 37.4808 70.9664 37.922 70.5101 38.5838C70.5101 37.922 70.5101 37.2602 70.5101 37.0396V34.3926H68V45.6426H69.8255L70.2819 44.7602C70.9664 45.422 71.651 45.8632 72.5638 45.8632C73.4765 45.8632 74.3893 45.422 74.8456 44.7602C75.302 44.0985 75.7584 42.9955 75.7584 41.672C75.7584 40.3485 75.5302 39.2455 74.8456 38.5838C74.3893 37.7014 73.7047 37.4808 72.7919 37.4808ZM73.0201 43.4367C72.7919 43.8779 72.3356 44.0985 71.8792 44.0985C71.1946 44.0985 70.9664 43.8779 70.5101 43.4367C70.5101 43.2161 70.2819 42.5543 70.2819 41.672V41.4514C70.2819 40.569 70.5101 40.1279 70.7383 39.6867C70.9664 39.2455 71.4228 39.2455 71.8792 39.2455C72.3356 39.2455 72.7919 39.4661 73.0201 39.9073C73.2483 40.3485 73.4765 41.0102 73.4765 41.672C73.4765 42.3338 73.4765 42.9955 73.0201 43.4367Z" fill="white"/>
<path d="M81.92 37.922C81.4636 38.1426 81.2354 38.5837 81.0072 39.0249L80.5508 37.4808H78.7253V45.6426H81.0072V41.672C81.0072 41.0102 81.2354 40.3485 81.6918 40.1279C82.1482 39.9073 82.6045 39.6867 83.5173 39.6867C83.7455 39.6867 83.9737 39.6867 84.2019 39.6867L84.43 37.7014C84.2019 37.7014 83.9737 37.7014 83.7455 37.7014C82.8327 37.4808 82.3763 37.4808 81.92 37.922Z" fill="white"/>
<path d="M90.1343 37.4808C88.9934 37.4808 87.8524 37.7014 86.9397 38.1426L87.6243 39.6867C88.537 39.2455 89.2216 39.0249 89.9061 39.0249C90.8189 39.0249 91.2753 39.4661 91.2753 40.3485V40.7896H89.9061C88.537 40.7896 87.6243 41.0102 87.1679 41.4514C86.4833 41.8926 86.2551 42.3337 86.2551 43.2161C86.2551 44.0984 86.4833 44.7602 86.9397 45.2014C87.3961 45.6426 88.0806 45.8632 88.7652 45.8632C89.4498 45.8632 89.9061 45.8632 90.3625 45.6426C90.8189 45.422 91.2753 44.9808 91.5034 44.5396L91.9598 45.6426H93.5571V40.3485C93.5571 39.4661 93.3289 38.5837 92.6444 38.1426C92.188 37.7014 91.2753 37.4808 90.1343 37.4808ZM91.5034 42.5543C91.5034 42.9955 91.2753 43.4367 91.0471 43.6573C90.5907 44.0984 90.1343 44.319 89.6779 44.319C88.9934 44.319 88.537 43.8779 88.537 43.2161C88.537 42.7749 88.7652 42.5543 88.9934 42.3337C89.2216 42.1132 89.9061 42.1132 90.5907 41.8926H91.5034V42.5543Z" fill="white"/>
<path d="M101.772 37.4808C101.088 37.4808 100.631 37.4808 100.175 37.7014C99.7185 37.922 99.2621 38.1426 99.034 38.5837H98.8058L98.5776 37.4808H96.7521V45.6426H99.034V41.8926C99.034 41.0102 99.2621 40.3485 99.4903 39.9073C99.7185 39.4661 100.175 39.2455 100.859 39.2455C101.316 39.2455 101.772 39.4661 102 39.6867C102.229 39.9073 102.229 40.3485 102.229 41.0102V45.8632H104.51V40.3485C104.51 39.4661 104.282 38.5837 103.826 38.1426C103.598 37.7014 102.913 37.4808 101.772 37.4808Z" fill="white"/>
<path d="M113.181 37.0396C113.181 37.4808 113.181 38.1426 113.409 38.5838C112.953 37.7014 112.04 37.4808 110.899 37.4808C109.986 37.4808 109.074 37.922 108.617 38.5838C107.933 39.2455 107.704 40.3485 107.704 41.672C107.704 42.9955 107.933 44.0985 108.617 44.7602C109.074 45.422 109.986 45.8632 110.899 45.8632C112.04 45.8632 112.725 45.422 113.181 44.7602L113.637 45.8632H115.463V34.3926H113.181V37.0396ZM113.409 41.8926C113.409 42.7749 113.181 43.2161 112.953 43.6573C112.725 43.8779 112.268 44.0985 111.584 44.0985C111.127 44.0985 110.671 43.8779 110.443 43.4367C110.215 42.9955 109.986 42.3338 109.986 41.672C109.986 40.7896 110.215 40.3485 110.443 39.9073C110.671 39.4661 111.127 39.2455 111.584 39.2455C112.268 39.2455 112.725 39.4661 112.953 39.9073C113.181 40.3485 113.409 41.0102 113.409 41.8926Z" fill="white"/>
<path d="M121.167 37.4808H118.885V45.6426H121.167V37.4808Z" fill="white"/>
<path d="M120.026 34.3926C119.114 34.3926 118.885 34.8338 118.885 35.4955C118.885 36.1573 119.342 36.5985 120.026 36.5985C120.483 36.5985 120.711 36.5985 120.939 36.3779C121.167 36.1573 121.167 35.9367 121.167 35.4955C121.395 34.8338 120.939 34.3926 120.026 34.3926Z" fill="white"/>
<path d="M129.383 37.4808C128.698 37.4808 128.242 37.4808 127.786 37.7014C127.329 37.922 126.873 38.1426 126.645 38.5837H126.416L126.188 37.4808H124.363V45.6426H126.645V41.8926C126.645 41.0102 126.873 40.3485 127.101 39.9073C127.329 39.4661 127.786 39.2455 128.47 39.2455C128.927 39.2455 129.383 39.4661 129.611 39.6867C129.839 39.9073 129.839 40.3485 129.839 41.0102V45.8632H132.121V40.3485C132.121 39.4661 131.893 38.5837 131.437 38.1426C131.208 37.7014 130.524 37.4808 129.383 37.4808Z" fill="white"/>
<path d="M139.651 37.4808C139.423 37.4808 138.966 37.4808 138.738 37.4808C137.597 37.4808 136.684 37.7014 136.228 38.1426C135.772 38.5837 135.315 39.2455 135.315 40.1279C135.315 40.7896 135.543 41.2308 135.772 41.672C136 42.1132 136.456 42.3337 136.912 42.5543C136.456 42.7749 136 42.9955 136 43.2161C135.772 43.4367 135.772 43.6573 135.772 44.0985C135.772 44.319 135.772 44.5396 136 44.7602C136.228 44.9808 136.456 45.2014 136.684 45.2014C136 45.422 135.543 45.6426 135.315 45.8632C135.087 46.0837 134.859 46.5249 134.859 47.1867C134.859 47.8485 135.087 48.5102 135.772 48.9514C136.456 49.3926 137.369 49.6132 138.51 49.6132C140.107 49.6132 141.248 49.3926 141.933 48.7308C142.617 48.069 143.074 47.4073 143.074 46.5249C143.074 45.8632 142.845 45.2014 142.389 44.7602C141.933 44.319 141.248 44.0985 140.335 44.0985H138.738C137.825 44.0985 137.369 43.8779 137.369 43.6573C137.369 43.4367 137.597 43.2161 137.825 42.9955H138.053H138.51C139.651 42.9955 140.563 42.7749 141.02 42.3337C141.704 41.8926 141.933 41.2308 141.933 40.3485C141.933 39.9073 141.704 39.4661 141.476 39.0249L143.074 38.8043V37.4808H140.107C140.107 37.4808 139.879 37.4808 139.651 37.4808ZM138.053 45.8632H139.194C139.879 45.8632 140.107 45.8632 140.563 46.0837C140.792 46.0837 141.02 46.3043 141.02 46.5249C141.02 46.9661 140.792 47.1867 140.335 47.4073C139.879 47.6279 139.194 47.6279 138.51 47.6279C138.053 47.6279 137.597 47.6279 137.141 47.4073C136.912 47.1867 136.684 46.9661 136.684 46.7455C136.684 46.5249 136.912 46.0837 137.141 46.0837C137.369 45.8632 137.597 45.8632 138.053 45.8632ZM139.651 41.2308C139.423 41.4514 139.194 41.672 138.738 41.672C138.282 41.672 138.053 41.4514 137.825 41.2308C137.597 41.0102 137.597 40.569 137.597 40.1279C137.369 39.2455 137.825 38.8043 138.738 38.8043C139.651 38.8043 139.879 39.2455 139.879 40.3485C139.879 40.7896 139.879 41.0102 139.651 41.2308Z" fill="white"/>
<path d="M157.45 41.4514C157.221 41.2308 156.765 41.0102 156.08 40.7896C155.396 40.569 154.711 40.3485 154.711 40.1279C154.483 39.9073 154.483 39.9073 154.483 39.6867C154.483 39.2455 154.711 39.2455 155.396 39.2455C155.852 39.2455 156.08 39.2455 156.537 39.4661C156.993 39.6867 157.221 39.6867 157.678 39.9073L158.362 38.3632C157.45 37.922 156.309 37.7014 155.396 37.7014C154.255 37.7014 153.57 37.922 152.886 38.3632C152.201 38.8043 151.973 39.2455 151.973 40.1279C151.973 40.569 151.973 41.0102 152.201 41.2308C152.429 41.4514 152.658 41.672 152.886 41.8926C153.114 42.1132 153.57 42.3338 154.255 42.5543C154.711 42.7749 155.168 42.9955 155.396 42.9955C155.624 43.2161 155.852 43.2161 156.08 43.4367C156.08 43.4367 156.309 43.6573 156.309 43.8779C156.309 44.319 155.852 44.5396 155.168 44.5396C154.711 44.5396 154.255 44.5396 153.799 44.319C153.342 44.0985 152.886 44.0985 152.429 43.8779V45.422C152.886 45.6426 153.114 45.6426 153.57 45.8632C154.027 45.8632 154.483 46.0838 155.168 46.0838C156.309 46.0838 157.221 45.8632 157.906 45.422C158.59 44.9808 158.819 44.319 158.819 43.4367C158.819 42.9955 158.819 42.7749 158.59 42.3338C157.906 41.8926 157.678 41.672 157.45 41.4514Z" fill="white"/>
<path d="M164.067 43.8779C163.839 43.6573 163.61 43.4367 163.61 43.2161V39.2455H165.892V37.4808H163.61V35.9367H162.241L161.557 37.4808L160.188 38.1426V39.0249H161.329V43.2161C161.329 44.0985 161.557 44.7602 162.013 45.2014C162.47 45.6426 163.154 45.8632 164.067 45.8632C164.98 45.8632 165.664 45.6426 166.121 45.422V43.8779C165.664 44.0985 164.98 44.0985 164.751 44.0985C164.523 44.0985 164.067 44.0985 164.067 43.8779Z" fill="white"/>
<path d="M174.336 41.4514C174.336 42.3337 174.108 42.9955 173.88 43.4367C173.651 43.8779 173.195 44.0985 172.511 44.0985C172.054 44.0985 171.598 43.8779 171.37 43.6573C171.141 43.4367 171.141 42.9955 171.141 42.3337V37.4808H168.859V42.7749C168.859 43.6573 169.088 44.5396 169.544 44.9808C170 45.422 170.685 45.6426 171.826 45.6426C172.511 45.6426 172.967 45.6426 173.423 45.422C173.88 45.2014 174.336 44.9808 174.564 44.5396H174.792L175.021 45.6426H176.846V37.4808H174.564V41.4514H174.336Z" fill="white"/>
<path d="M185.061 37.0396C185.061 37.4808 185.061 38.1426 185.289 38.5838C184.833 37.7014 183.92 37.4808 182.779 37.4808C181.866 37.4808 180.953 37.922 180.497 38.5838C179.812 39.2455 179.584 40.3485 179.584 41.672C179.584 42.9955 179.812 44.0985 180.497 44.7602C180.953 45.422 181.866 45.8632 182.779 45.8632C183.92 45.8632 184.604 45.422 185.061 44.7602L185.517 45.8632H187.343V34.3926H185.061V37.0396ZM185.289 41.8926C185.289 42.7749 185.061 43.2161 184.833 43.6573C184.604 43.8779 184.148 44.0985 183.463 44.0985C183.007 44.0985 182.551 43.8779 182.322 43.4367C182.094 42.9955 181.866 42.3338 181.866 41.672C181.866 40.7896 182.094 40.3485 182.322 39.9073C182.551 39.4661 183.007 39.2455 183.463 39.2455C184.148 39.2455 184.604 39.4661 184.833 39.9073C185.061 40.3485 185.289 41.0102 185.289 41.8926Z" fill="white"/>
<path d="M191.905 34.3926C190.993 34.3926 190.764 34.8338 190.764 35.4955C190.764 36.1573 191.221 36.5985 191.905 36.5985C192.362 36.5985 192.59 36.5985 192.818 36.3779C193.046 36.1573 193.046 35.9367 193.046 35.4955C193.046 34.8338 192.818 34.3926 191.905 34.3926Z" fill="white"/>
<path d="M193.046 37.4808H190.764V45.6426H193.046V37.4808Z" fill="white"/>
<path d="M203.544 39.4661C203.315 38.8043 202.631 38.3632 202.174 37.922C201.49 37.4808 200.805 37.4808 200.121 37.4808C198.752 37.4808 197.839 37.922 197.154 38.5837C196.47 39.2455 196.013 40.3485 196.013 41.672C196.013 42.5543 196.242 43.2161 196.47 43.8779C196.698 44.5396 197.383 44.9808 197.839 45.422C198.524 45.8632 199.208 45.8632 199.893 45.8632C201.262 45.8632 202.174 45.422 202.859 44.7602C203.544 44.0984 204 42.9955 204 41.672C204 40.7896 204 40.1279 203.544 39.4661ZM201.262 43.4367C201.034 43.8779 200.577 44.0984 199.893 44.0984C199.208 44.0984 198.752 43.8779 198.523 43.4367C198.295 42.9955 198.067 42.3337 198.067 41.672C198.067 40.7896 198.295 40.3485 198.523 39.9073C198.752 39.4661 199.208 39.2455 199.893 39.2455C200.577 39.2455 201.034 39.4661 201.262 39.9073C201.49 40.3485 201.718 41.0102 201.718 41.672C201.718 42.3337 201.718 42.9955 201.262 43.4367Z" fill="white"/>
</g>
<defs>
<clipPath id="clip0">
<rect width="43" height="54" fill="white" transform="translate(0 0.392578)"/>
</clipPath>
<clipPath id="clip1">
<rect width="136" height="15" fill="white" transform="translate(68 34.3926)"/>
</clipPath>
</defs>
</svg>
