<svg width="33" height="42" viewBox="0 0 33 42" fill="none" xmlns="http://www.w3.org/2000/svg">
<path d="M0 21V20.5882L10.1103 20.1765C12.6985 20.0941 13.6691 19.6 11.7279 17.2941L7.60294 12.2706L7.92647 11.9412L12.7794 16.0588C14.7206 17.7059 15.6912 17.7059 15.6912 14.9059L16.0956 0H16.5H16.9044L17.3088 14.9059C17.3897 17.7059 18.3603 17.7059 20.2206 16.0588L25.0735 11.9412L25.3971 12.2706L21.2721 17.2941C19.3309 19.6824 20.3015 20.0941 22.8897 20.1765L33 20.5882V21V21.4118L22.8897 21.8235C20.3015 21.9059 19.3309 22.4 21.2721 24.7059L25.3971 29.7294L25.0735 30.0588L20.2206 25.9412C18.2794 24.2941 17.3088 24.2941 17.3088 27.0941L16.9044 42H16.5H16.0956L15.6912 27.0941C15.6103 24.2941 14.6397 24.2941 12.7794 25.9412L7.92647 30.0588L7.60294 29.7294L11.7279 24.7059C13.6691 22.3176 12.6985 21.9059 10.1103 21.8235L0 21.4118V21Z" fill="white"/>
</svg>
