<svg width="169" height="183" viewBox="0 0 169 183" fill="none" xmlns="http://www.w3.org/2000/svg">
<g clip-path="url(#clip0)">
<path d="M40.6943 54.9621V53.8999L67.2478 52.8378C74.0454 52.6254 76.5946 51.3508 71.4963 45.4028L60.6625 32.4448L61.5122 31.5951L74.2579 42.2164C79.3561 46.465 81.9052 46.465 81.9052 39.2424L82.9674 0.793091H84.0295H85.0916L86.1538 39.2424C86.3662 46.465 88.9153 46.465 93.8012 42.2164L106.547 31.5951L107.397 32.4448L96.5627 45.4028C91.4645 51.5632 94.0136 52.6254 100.811 52.8378L127.365 53.8999V54.9621V56.0242L100.811 57.0863C94.0136 57.2988 91.4645 58.5733 96.5627 64.5213L107.397 77.4794L106.547 78.3291L93.8012 67.7077C88.7029 63.4592 86.1538 63.4592 86.1538 70.6817L85.0916 109.131H84.0295H82.9674L81.9052 70.6817C81.6928 63.4592 79.1437 63.4592 74.2579 67.7077L61.5122 78.3291L60.6625 77.4794L71.4963 64.5213C76.5946 58.3609 74.0454 57.2988 67.2478 57.0863L40.6943 56.0242V54.9621Z" fill="white"/>
</g>
<g clip-path="url(#clip1)">
<path d="M161.989 109.072L161.139 110.134C160.502 110.984 160.29 111.834 160.29 112.259C160.29 112.896 160.502 113.321 161.139 113.746C161.989 114.383 162.626 114.17 163.264 113.108C163.689 112.471 163.901 111.834 163.901 110.984C163.901 110.347 163.476 109.709 162.839 109.285L161.989 109.072ZM167.512 111.834L165.6 111.409C165.813 112.259 166.025 113.108 165.813 113.746C165.6 114.383 165.388 115.233 164.751 116.082C164.113 117.144 163.264 117.782 162.202 117.782C161.139 117.994 160.077 117.569 159.015 116.932C157.953 116.082 157.316 115.233 157.316 113.958C157.316 112.683 157.953 111.409 159.015 109.709L160.29 107.798L159.865 107.373C158.803 106.523 157.953 106.735 157.103 107.798C156.466 108.647 156.041 109.922 155.829 111.409L153.28 110.984C153.492 109.285 154.129 107.798 155.192 106.311C156.254 104.824 157.316 103.974 158.378 103.761C159.44 103.337 160.715 103.761 161.989 104.611L168.999 109.709L167.512 111.834ZM147.544 115.445C147.969 115.233 148.181 114.808 148.606 114.808L150.518 117.569C150.306 117.782 149.881 117.994 149.668 118.206C148.819 118.844 148.394 119.693 148.181 120.543C147.969 121.393 148.394 122.243 149.031 123.092L153.28 128.191L150.518 130.527L142.233 120.543L144.358 118.844L146.27 120.118L146.482 119.906C146.27 119.056 146.27 118.206 146.694 117.569C146.482 116.719 146.907 116.082 147.544 115.445ZM135.861 124.367C136.285 124.154 136.71 123.942 136.923 123.942L138.41 126.916C138.197 126.916 137.772 127.128 137.348 127.341C136.285 127.978 135.648 128.615 135.436 129.465C135.223 130.315 135.223 131.165 135.861 132.014L139.047 137.75L135.861 139.449L129.488 128.191L131.825 126.916L133.311 128.615H133.524C133.524 127.766 133.736 126.916 134.161 126.279C134.586 125.217 135.223 124.792 135.861 124.367ZM122.69 145.185C120.778 145.822 118.866 145.822 117.379 144.972C115.892 144.335 114.83 142.848 114.193 140.936C113.556 138.812 113.556 137.113 114.193 135.626C114.83 134.139 116.105 133.076 118.017 132.439C119.716 131.802 121.203 132.014 122.69 132.652C123.965 133.289 125.027 134.563 125.452 136.263L126.089 137.962L118.017 140.511C118.442 141.361 118.866 142.211 119.504 142.423C120.141 142.848 120.991 142.848 122.053 142.423C122.903 142.211 123.54 141.786 124.177 141.574C124.814 141.149 125.452 140.724 126.089 140.087L126.939 142.636C126.514 143.06 125.877 143.485 125.239 143.91C124.602 144.547 123.752 144.76 122.69 145.185ZM118.866 134.776C118.229 134.988 117.592 135.413 117.379 136.05C117.167 136.688 117.167 137.325 117.379 138.175L122.053 136.688C121.84 135.838 121.416 135.201 120.778 134.988C120.141 134.563 119.504 134.563 118.866 134.776ZM106.121 146.672C106.758 146.672 107.395 146.247 108.245 145.822L108.67 148.371C107.82 149.008 106.758 149.221 105.484 149.433C103.997 149.646 102.934 149.433 102.297 148.796C101.447 148.159 101.023 147.097 100.81 145.822L99.748 139.662L98.0486 140.087L97.8361 138.6L99.5356 137.113L100.173 134.139L102.297 133.926L102.722 136.688L106.333 136.05L106.758 138.6L103.147 139.237L104.209 145.397C104.209 145.822 104.421 146.247 104.846 146.459C105.271 146.672 105.484 146.672 106.121 146.672ZM87.4272 145.185H86.1526C85.0905 145.185 84.2408 145.397 83.8159 145.822C83.3911 146.247 83.1786 146.672 83.1786 147.521C83.1786 148.584 83.8159 149.008 84.8781 149.008C85.7278 149.008 86.3651 148.796 86.7899 148.159C87.2148 147.734 87.4272 147.097 87.4272 146.247V145.185ZM88.7018 151.133L88.0645 149.433C87.4272 150.283 86.7899 150.708 86.1526 151.133C85.5153 151.345 84.6656 151.558 83.6035 151.558C82.3289 151.558 81.2668 151.345 80.6295 150.495C79.9922 149.858 79.5674 148.796 79.5674 147.521C79.5674 146.034 79.9922 145.185 81.0544 144.335C82.1165 143.698 83.3911 143.273 85.5153 143.06L87.852 142.848V142.211C87.852 140.936 87.2148 140.299 85.7278 140.299C84.6656 140.299 83.3911 140.724 82.1165 141.361L80.8419 139.024C82.3289 138.175 84.0284 137.75 85.7278 137.75C87.4272 137.75 88.9142 138.175 89.7639 138.812C90.6136 139.662 91.2509 140.724 91.2509 142.211L91.4633 150.92L88.7018 151.133ZM62.3608 149.433L58.9619 148.796L60.4489 141.361C60.6613 140.511 60.6613 139.662 60.4489 139.237C60.2365 138.812 59.8116 138.387 59.1744 138.175C58.3246 137.962 57.4749 138.175 57.0501 138.812C56.4128 139.449 55.9879 140.511 55.7755 141.998L54.5009 147.946L51.1021 147.309L53.6512 134.563L56.4128 135.201L56.6252 136.9H56.8377C57.2625 136.475 57.8998 136.05 58.5371 135.838C59.1744 135.626 60.0241 135.626 60.8738 135.838C62.7856 136.263 63.8478 137.113 64.2726 138.6H64.485C64.9099 138.175 65.5472 137.75 66.1845 137.537C66.8217 137.325 67.6714 137.325 68.5211 137.537C70.0081 137.75 71.0703 138.387 71.4951 139.237C72.1324 140.087 72.1324 141.361 71.92 143.06L70.433 150.92L67.0342 150.283L68.5211 142.848C68.7336 141.998 68.7336 141.149 68.5211 140.724C68.3087 140.299 67.8839 139.874 67.2466 139.662C66.3969 139.449 65.7596 139.662 65.1223 140.087C64.485 140.511 64.0602 141.574 63.8478 142.848L62.3608 149.433ZM41.5429 143.698L38.144 142.423L43.2423 130.315L46.4287 131.589L41.5429 143.698ZM44.5169 127.128C44.9417 126.066 45.7914 125.854 47.066 126.279C48.3406 126.704 48.553 127.553 48.1281 128.615C47.9157 129.04 47.7033 129.465 47.2784 129.678C46.8536 129.89 46.4287 129.89 45.7914 129.465C44.3044 129.04 44.092 128.191 44.5169 127.128ZM29.4345 135.201C30.0718 135.413 30.7091 135.838 31.5588 136.05L30.2842 138.175C29.2221 138.175 28.3724 137.75 27.0978 137.113C25.8233 136.475 25.186 135.626 24.9735 134.563C24.7611 133.714 24.9735 132.439 25.8232 131.165L29.0097 125.641L27.5227 124.792L28.3724 123.517H30.7091L33.0458 121.605L34.9576 122.667L33.6831 125.004L36.8695 126.916L35.5949 129.253L31.9836 127.553L28.7972 133.076C28.5848 133.501 28.5848 133.926 28.5848 134.351C28.7972 134.563 29.2221 134.776 29.4345 135.201ZM15.6267 128.828L12.8652 126.491L24.5487 112.683L27.3102 114.808L15.6267 128.828ZM4.36809 117.144L5.43022 115.87L5.2178 115.657C4.58051 115.657 3.7308 115.445 3.09352 115.233C2.45624 114.808 1.81896 114.17 1.3941 113.533C0.544393 112.259 0.119538 110.984 0.331966 109.922C0.544393 108.86 1.3941 107.798 2.45624 106.948L9.67877 102.062L11.803 105.036L5.43022 109.285C4.58051 109.922 4.15566 110.559 3.94323 110.984C3.7308 111.621 3.94323 112.046 4.36809 112.683C5.00537 113.533 5.64265 113.958 6.49236 113.958C7.34207 113.958 8.40421 113.533 9.67877 112.683L14.777 109.072L16.9013 112.046L6.27993 119.481L4.36809 117.144Z" fill="white"/>
</g>
<g clip-path="url(#clip2)">
<path d="M26.0359 170.888C24.9738 170.888 24.3365 171.313 23.9117 171.951C23.9117 171.313 23.9117 170.676 23.9117 170.464V167.914H21.575V178.748H23.2744L23.6992 177.899C24.3365 178.536 24.9738 178.961 25.8235 178.961C26.6732 178.961 27.5229 178.536 27.9478 177.899C28.3726 177.261 28.7975 176.199 28.7975 174.925C28.7975 173.65 28.5851 172.588 27.9478 171.951C27.5229 171.101 26.8856 170.888 26.0359 170.888ZM26.2484 176.624C26.0359 177.049 25.6111 177.261 25.1862 177.261C24.5489 177.261 24.3365 177.049 23.9117 176.624C23.9117 176.412 23.6992 175.774 23.6992 174.925V174.712C23.6992 173.862 23.9117 173.438 24.1241 173.013C24.3365 172.588 24.7614 172.588 25.1862 172.588C25.6111 172.588 26.0359 172.8 26.2484 173.225C26.4608 173.65 26.6732 174.287 26.6732 174.925C26.6732 175.562 26.6732 176.199 26.2484 176.624Z" fill="white"/>
<path d="M34.5336 171.313C34.1087 171.526 33.8963 171.951 33.6838 172.375L33.259 170.888H31.5596V178.748H33.6838V174.925C33.6838 174.287 33.8963 173.65 34.3211 173.438C34.746 173.225 35.1708 173.013 36.0205 173.013C36.233 173.013 36.4454 173.013 36.6578 173.013L36.8703 171.101C36.6578 171.101 36.4454 171.101 36.233 171.101C35.3833 170.888 34.9584 170.888 34.5336 171.313Z" fill="white"/>
<path d="M42.1806 170.888C41.1185 170.888 40.0563 171.101 39.2066 171.526L39.8439 173.013C40.6936 172.588 41.3309 172.375 41.9682 172.375C42.8179 172.375 43.2427 172.8 43.2427 173.65V174.075H41.9682C40.6936 174.075 39.8439 174.287 39.419 174.712C38.7818 175.137 38.5693 175.562 38.5693 176.412C38.5693 177.261 38.7818 177.899 39.2066 178.323C39.6315 178.748 40.2688 178.961 40.906 178.961C41.5433 178.961 41.9682 178.961 42.393 178.748C42.8179 178.536 43.2427 178.111 43.4552 177.686L43.88 178.748H45.367V173.65C45.367 172.8 45.1546 171.951 44.5173 171.526C44.0924 171.101 43.2427 170.888 42.1806 170.888ZM43.4552 175.774C43.4552 176.199 43.2427 176.624 43.0303 176.836C42.6055 177.261 42.1806 177.474 41.7557 177.474C41.1185 177.474 40.6936 177.049 40.6936 176.412C40.6936 175.987 40.906 175.774 41.1185 175.562C41.3309 175.349 41.9682 175.349 42.6055 175.137H43.4552V175.774Z" fill="white"/>
<path d="M53.0145 170.888C52.3772 170.888 51.9523 170.888 51.5275 171.101C51.1026 171.313 50.6778 171.526 50.4653 171.951H50.2529L50.0405 170.888H48.3411V178.748H50.4653V175.137C50.4653 174.287 50.6778 173.65 50.8902 173.225C51.1026 172.8 51.5275 172.588 52.1648 172.588C52.5896 172.588 53.0145 172.8 53.2269 173.013C53.4393 173.225 53.4393 173.65 53.4393 174.287V178.961H55.5636V173.65C55.5636 172.8 55.3512 171.951 54.9263 171.526C54.7139 171.101 54.0766 170.888 53.0145 170.888Z" fill="white"/>
<path d="M63.6354 170.464C63.6354 170.888 63.6354 171.526 63.8478 171.951C63.4229 171.101 62.5732 170.888 61.5111 170.888C60.6614 170.888 59.8117 171.313 59.3868 171.951C58.7495 172.588 58.5371 173.65 58.5371 174.925C58.5371 176.199 58.7495 177.261 59.3868 177.899C59.8117 178.536 60.6614 178.961 61.5111 178.961C62.5732 178.961 63.2105 178.536 63.6354 177.899L64.0602 178.961H65.7596V167.914H63.6354V170.464ZM63.8478 175.137C63.8478 175.987 63.6354 176.412 63.4229 176.836C63.2105 177.049 62.7857 177.261 62.1484 177.261C61.7235 177.261 61.2987 177.049 61.0862 176.624C60.8738 176.199 60.6614 175.562 60.6614 174.925C60.6614 174.075 60.8738 173.65 61.0862 173.225C61.2987 172.8 61.7235 172.588 62.1484 172.588C62.7857 172.588 63.2105 172.8 63.4229 173.225C63.6354 173.65 63.8478 174.287 63.8478 175.137Z" fill="white"/>
<path d="M71.0701 170.888H68.9458V178.748H71.0701V170.888Z" fill="white"/>
<path d="M70.0079 167.914C69.1582 167.914 68.9458 168.339 68.9458 168.977C68.9458 169.614 69.3707 170.039 70.0079 170.039C70.4328 170.039 70.6452 170.039 70.8576 169.826C71.0701 169.614 71.0701 169.401 71.0701 168.977C71.2825 168.339 70.8576 167.914 70.0079 167.914Z" fill="white"/>
<path d="M78.7183 170.888C78.081 170.888 77.6562 170.888 77.2313 171.101C76.8065 171.313 76.3816 171.526 76.1692 171.951H75.9568L75.7443 170.888H74.0449V178.748H76.1692V175.137C76.1692 174.287 76.3816 173.65 76.5941 173.225C76.8065 172.8 77.2313 172.588 77.8686 172.588C78.2935 172.588 78.7183 172.8 78.9308 173.013C79.1432 173.225 79.1432 173.65 79.1432 174.287V178.961H81.2675V173.65C81.2675 172.8 81.055 171.951 80.6302 171.526C80.4178 171.101 79.7805 170.888 78.7183 170.888Z" fill="white"/>
<path d="M88.2769 170.888C88.0645 170.888 87.6396 170.888 87.4272 170.888C86.365 170.888 85.5153 171.101 85.0905 171.526C84.6656 171.951 84.2408 172.588 84.2408 173.438C84.2408 174.075 84.4532 174.5 84.6656 174.925C84.8781 175.349 85.3029 175.562 85.7278 175.774C85.3029 175.987 84.8781 176.199 84.8781 176.412C84.6656 176.624 84.6656 176.836 84.6656 177.261C84.6656 177.474 84.6656 177.686 84.8781 177.899C85.0905 178.111 85.3029 178.323 85.5153 178.323C84.8781 178.536 84.4532 178.748 84.2408 178.961C84.0283 179.173 83.8159 179.598 83.8159 180.235C83.8159 180.873 84.0283 181.51 84.6656 181.935C85.3029 182.36 86.1526 182.572 87.2148 182.572C88.7017 182.572 89.7639 182.36 90.4012 181.722C91.0384 181.085 91.4633 180.448 91.4633 179.598C91.4633 178.961 91.2509 178.323 90.826 177.899C90.4012 177.474 89.7639 177.261 88.9142 177.261H87.4272C86.5775 177.261 86.1526 177.049 86.1526 176.836C86.1526 176.624 86.365 176.412 86.5775 176.199H86.7899H87.2148C88.2769 176.199 89.1266 175.987 89.5515 175.562C90.1887 175.137 90.4012 174.5 90.4012 173.65C90.4012 173.225 90.1887 172.8 89.9763 172.375L91.4633 172.163V170.888H88.7017C88.7017 170.888 88.4893 170.888 88.2769 170.888ZM86.7899 178.961H87.852C88.4893 178.961 88.7017 178.961 89.1266 179.173C89.339 179.173 89.5515 179.386 89.5515 179.598C89.5515 180.023 89.339 180.235 88.9142 180.448C88.4893 180.66 87.852 180.66 87.2148 180.66C86.7899 180.66 86.365 180.66 85.9402 180.448C85.7278 180.235 85.5153 180.023 85.5153 179.81C85.5153 179.598 85.7278 179.173 85.9402 179.173C86.1526 178.961 86.365 178.961 86.7899 178.961ZM88.2769 174.5C88.0645 174.712 87.852 174.925 87.4272 174.925C87.0023 174.925 86.7899 174.712 86.5775 174.5C86.365 174.287 86.365 173.862 86.365 173.438C86.1526 172.588 86.5775 172.163 87.4272 172.163C88.2769 172.163 88.4893 172.588 88.4893 173.65C88.4893 174.075 88.4893 174.287 88.2769 174.5Z" fill="white"/>
<path d="M104.846 174.712C104.634 174.5 104.209 174.287 103.572 174.075C102.934 173.862 102.297 173.65 102.297 173.438C102.085 173.225 102.085 173.225 102.085 173.013C102.085 172.588 102.297 172.588 102.934 172.588C103.359 172.588 103.572 172.588 103.997 172.8C104.421 173.013 104.634 173.013 105.059 173.225L105.696 171.738C104.846 171.313 103.784 171.101 102.934 171.101C101.872 171.101 101.235 171.313 100.598 171.738C99.9605 172.163 99.748 172.588 99.748 173.438C99.748 173.862 99.7481 174.287 99.9605 174.5C100.173 174.712 100.385 174.925 100.598 175.137C100.81 175.349 101.235 175.562 101.872 175.774C102.297 175.987 102.722 176.199 102.934 176.199C103.147 176.412 103.359 176.412 103.572 176.624C103.572 176.624 103.784 176.836 103.784 177.049C103.784 177.474 103.359 177.686 102.722 177.686C102.297 177.686 101.872 177.686 101.447 177.474C101.023 177.261 100.598 177.261 100.173 177.049V178.536C100.598 178.748 100.81 178.748 101.235 178.961C101.66 178.961 102.085 179.173 102.722 179.173C103.784 179.173 104.634 178.961 105.271 178.536C105.908 178.111 106.121 177.474 106.121 176.624C106.121 176.199 106.121 175.987 105.908 175.562C105.271 175.137 105.059 174.925 104.846 174.712Z" fill="white"/>
<path d="M111.007 177.049C110.794 176.836 110.582 176.624 110.582 176.411V172.588H112.706V170.888H110.582V169.401H109.307L108.67 170.888L107.395 171.526V172.375H108.457V176.411C108.457 177.261 108.67 177.898 109.095 178.323C109.52 178.748 110.157 178.961 111.007 178.961C111.856 178.961 112.494 178.748 112.918 178.536V177.049C112.494 177.261 111.856 177.261 111.644 177.261C111.431 177.261 111.007 177.261 111.007 177.049Z" fill="white"/>
<path d="M120.567 174.712C120.567 175.562 120.354 176.199 120.142 176.624C119.929 177.049 119.504 177.261 118.867 177.261C118.442 177.261 118.017 177.049 117.805 176.836C117.593 176.624 117.593 176.199 117.593 175.562V170.888H115.468V175.987C115.468 176.836 115.681 177.686 116.106 178.111C116.53 178.536 117.168 178.748 118.23 178.748C118.867 178.748 119.292 178.748 119.717 178.536C120.142 178.323 120.567 178.111 120.779 177.686H120.991L121.204 178.748H122.903V170.888H120.779V174.712H120.567Z" fill="white"/>
<path d="M130.551 170.464C130.551 170.888 130.551 171.526 130.763 171.951C130.338 171.101 129.488 170.888 128.426 170.888C127.577 170.888 126.727 171.313 126.302 171.951C125.665 172.588 125.452 173.65 125.452 174.925C125.452 176.199 125.665 177.261 126.302 177.899C126.727 178.536 127.577 178.961 128.426 178.961C129.488 178.961 130.126 178.536 130.551 177.899L130.975 178.961H132.675V167.914H130.551V170.464ZM130.763 175.137C130.763 175.987 130.551 176.412 130.338 176.836C130.126 177.049 129.701 177.261 129.064 177.261C128.639 177.261 128.214 177.049 128.002 176.624C127.789 176.199 127.577 175.562 127.577 174.925C127.577 174.075 127.789 173.65 128.002 173.225C128.214 172.8 128.639 172.588 129.064 172.588C129.701 172.588 130.126 172.8 130.338 173.225C130.551 173.65 130.763 174.287 130.763 175.137Z" fill="white"/>
<path d="M136.922 167.914C136.073 167.914 135.86 168.339 135.86 168.977C135.86 169.614 136.285 170.039 136.922 170.039C137.347 170.039 137.56 170.039 137.772 169.826C137.984 169.614 137.984 169.401 137.984 168.977C137.984 168.339 137.772 167.914 136.922 167.914Z" fill="white"/>
<path d="M137.984 170.888H135.86V178.748H137.984V170.888Z" fill="white"/>
<path d="M147.757 172.8C147.545 172.163 146.907 171.738 146.482 171.313C145.845 170.888 145.208 170.888 144.571 170.888C143.296 170.888 142.446 171.313 141.809 171.951C141.172 172.588 140.747 173.65 140.747 174.925C140.747 175.774 140.959 176.412 141.172 177.049C141.384 177.686 142.021 178.111 142.446 178.536C143.084 178.961 143.721 178.961 144.358 178.961C145.633 178.961 146.482 178.536 147.12 177.899C147.757 177.261 148.182 176.199 148.182 174.925C148.182 174.075 148.182 173.438 147.757 172.8ZM145.633 176.624C145.42 177.049 144.995 177.261 144.358 177.261C143.721 177.261 143.296 177.049 143.084 176.624C142.871 176.199 142.659 175.562 142.659 174.925C142.659 174.075 142.871 173.65 143.084 173.225C143.296 172.8 143.721 172.588 144.358 172.588C144.995 172.588 145.42 172.8 145.633 173.225C145.845 173.65 146.058 174.287 146.058 174.925C146.058 175.562 146.058 176.199 145.633 176.624Z" fill="white"/>
</g>
<defs>
<clipPath id="clip0">
<rect width="86.6703" height="108.338" fill="white" transform="translate(40.6943 0.793091)"/>
</clipPath>
<clipPath id="clip1">
<rect width="168.667" height="49.4956" fill="white" transform="translate(0.333008 102.062)"/>
</clipPath>
<clipPath id="clip2">
<rect width="126.607" height="14.4451" fill="white" transform="translate(21.575 167.914)"/>
</clipPath>
</defs>
</svg>
