<svg width="156" height="34" viewBox="0 0 156 34" fill="none" xmlns="http://www.w3.org/2000/svg">
<path d="M0 17V16.6667L8.27206 16.3333C10.3897 16.2667 11.1838 15.8667 9.59559 14L6.22059 9.93333L6.48529 9.66667L10.4559 13C12.0441 14.3333 12.8382 14.3333 12.8382 12.0667L13.1691 0H13.5H13.8309L14.1618 12.0667C14.2279 14.3333 15.0221 14.3333 16.5441 13L20.5147 9.66667L20.7794 9.93333L17.4044 14C15.8162 15.9333 16.6103 16.2667 18.7279 16.3333L27 16.6667V17V17.3333L18.7279 17.6667C16.6103 17.7333 15.8162 18.1333 17.4044 20L20.7794 24.0667L20.5147 24.3333L16.5441 21C14.9559 19.6667 14.1618 19.6667 14.1618 21.9333L13.8309 34H13.5H13.1691L12.8382 21.9333C12.7721 19.6667 11.9779 19.6667 10.4559 21L6.48529 24.3333L6.22059 24.0667L9.59559 20C11.1838 18.0667 10.3897 17.7333 8.27206 17.6667L0 17.3333V17Z" fill="white"/>
<path d="M53.5497 23.8096L53.1618 22.4486H53.0104C52.7014 22.9435 52.263 23.3274 51.6954 23.6003C51.1277 23.8668 50.4812 24 49.7559 24C48.5134 24 47.5768 23.6669 46.9461 23.0006C46.3154 22.328 46 21.3636 46 20.1072V13.1688H48.8855V19.3839C48.8855 20.1516 49.0211 20.7291 49.2923 21.1161C49.5635 21.4968 49.9956 21.6872 50.5885 21.6872C51.3958 21.6872 51.9792 21.4175 52.3387 20.8782C52.6982 20.3325 52.878 19.4315 52.878 18.1751V13.1688H55.7635V23.8096H53.5497Z" fill="white"/>
<path d="M61.6764 23.8096H58.7909V9H61.6764V23.8096Z" fill="white"/>
<path d="M69.1693 21.6872C69.6739 21.6872 70.2794 21.5761 70.9858 21.3541V23.5146C70.2668 23.8382 69.3838 24 68.3368 24C67.1826 24 66.3406 23.7081 65.8108 23.1244C65.2873 22.5343 65.0255 21.6523 65.0255 20.4784V15.3484H63.6443V14.1206L65.2337 13.1497L66.0662 10.9036H67.9111V13.1688H70.8723V15.3484H67.9111V20.4784C67.9111 20.8909 68.0246 21.1954 68.2517 21.3921C68.485 21.5888 68.7909 21.6872 69.1693 21.6872Z" fill="white"/>
<path d="M73.0104 10.4181C73.0104 9.47272 73.5339 9 74.5809 9C75.6279 9 76.1514 9.47272 76.1514 10.4181C76.1514 10.8687 76.0189 11.2208 75.754 11.4746C75.4954 11.7221 75.1044 11.8458 74.5809 11.8458C73.5339 11.8458 73.0104 11.3699 73.0104 10.4181ZM76.0189 23.8096H73.1334V13.1688H76.0189V23.8096Z" fill="white"/>
<path d="M88.526 23.8096H85.6405V17.5945C85.6405 16.8268 85.5112 16.2525 85.2526 15.8718C85.0003 15.4848 84.5998 15.2912 84.0511 15.2912C83.3131 15.2912 82.777 15.5641 82.4428 16.1098C82.1085 16.6555 81.9413 17.5533 81.9413 18.8033V23.8096H79.0558V13.1688H81.2602L81.6481 14.5298H81.8089C82.0927 14.0412 82.5027 13.6605 83.0388 13.3877C83.5749 13.1085 84.1898 12.9689 84.8836 12.9689C86.4667 12.9689 87.5389 13.4892 88.1003 14.5298H88.3557C88.6395 14.0349 89.0558 13.651 89.6045 13.3782C90.1596 13.1053 90.784 12.9689 91.4778 12.9689C92.6761 12.9689 93.5812 13.2798 94.193 13.9016C94.8111 14.5171 95.1202 15.507 95.1202 16.8712V23.8096H92.2252V17.5945C92.2252 16.8268 92.0959 16.2525 91.8373 15.8718C91.585 15.4848 91.1845 15.2912 90.6358 15.2912C89.9294 15.2912 89.3996 15.5451 89.0464 16.0527C88.6995 16.5603 88.526 17.3661 88.526 18.4702V23.8096Z" fill="white"/>
<path d="M104.808 23.8096L104.25 22.3629H104.174C103.688 22.9784 103.187 23.4067 102.67 23.6478C102.159 23.8826 101.49 24 100.664 24C99.6487 24 98.8477 23.7081 98.2611 23.1244C97.6809 22.5406 97.3907 21.7094 97.3907 20.6307C97.3907 19.5013 97.7818 18.6701 98.5639 18.1371C99.3523 17.5977 100.538 17.2995 102.121 17.2424L103.956 17.1853V16.7189C103.956 15.6402 103.408 15.1009 102.31 15.1009C101.465 15.1009 100.472 15.3579 99.3302 15.8718L98.3746 13.9112C99.5919 13.2703 100.942 12.9499 102.424 12.9499C103.843 12.9499 104.931 13.2608 105.688 13.8826C106.445 14.5044 106.823 15.4499 106.823 16.7189V23.8096H104.808ZM103.956 18.8794L102.84 18.9175C102.001 18.9429 101.377 19.0952 100.967 19.3744C100.557 19.6536 100.352 20.0787 100.352 20.6497C100.352 21.4683 100.819 21.8775 101.752 21.8775C102.421 21.8775 102.954 21.684 103.351 21.297C103.755 20.9099 103.956 20.3959 103.956 19.7551V18.8794Z" fill="white"/>
<path d="M114.259 21.6872C114.764 21.6872 115.369 21.5761 116.076 21.3541V23.5146C115.357 23.8382 114.474 24 113.427 24C112.272 24 111.43 23.7081 110.901 23.1244C110.377 22.5343 110.115 21.6523 110.115 20.4784V15.3484H108.734V14.1206L110.324 13.1497L111.156 10.9036H113.001V13.1688H115.962V15.3484H113.001V20.4784C113.001 20.8909 113.114 21.1954 113.342 21.3921C113.575 21.5888 113.881 21.6872 114.259 21.6872Z" fill="white"/>
<path d="M122.604 15.0343C121.992 15.0343 121.512 15.231 121.166 15.6244C120.819 16.0114 120.62 16.5635 120.57 17.2805H124.619C124.606 16.5635 124.42 16.0114 124.061 15.6244C123.701 15.231 123.215 15.0343 122.604 15.0343ZM123.01 24C121.307 24 119.977 23.5273 119.018 22.5819C118.059 21.6364 117.58 20.2976 117.58 18.5654C117.58 16.7824 118.021 15.4055 118.904 14.4346C119.794 13.4575 121.021 12.9689 122.585 12.9689C124.079 12.9689 125.243 13.3972 126.076 14.2538C126.908 15.1104 127.325 16.2938 127.325 17.8039V19.2126H120.503C120.535 20.0374 120.778 20.6815 121.232 21.1447C121.686 21.6079 122.323 21.8395 123.143 21.8395C123.78 21.8395 124.382 21.7728 124.95 21.6396C125.518 21.5063 126.11 21.2938 126.728 21.0019V23.2481C126.224 23.5019 125.685 23.6891 125.111 23.8096C124.537 23.9365 123.837 24 123.01 24Z" fill="white"/>
<path d="M135.574 12.9689C135.965 12.9689 136.29 12.9975 136.549 13.0546L136.331 15.7766C136.098 15.7132 135.814 15.6815 135.48 15.6815C134.559 15.6815 133.84 15.9194 133.323 16.3953C132.812 16.8712 132.556 17.5374 132.556 18.394V23.8096H129.671V13.1688H131.856L132.282 14.9581H132.424C132.752 14.3617 133.193 13.8826 133.748 13.5209C134.31 13.1529 134.918 12.9689 135.574 12.9689Z" fill="white"/>
<path d="M144.373 12.9689C144.764 12.9689 145.089 12.9975 145.347 13.0546L145.13 15.7766C144.896 15.7132 144.612 15.6815 144.278 15.6815C143.357 15.6815 142.638 15.9194 142.121 16.3953C141.61 16.8712 141.355 17.5374 141.355 18.394V23.8096H138.469V13.1688H140.655L141.08 14.9581H141.222C141.55 14.3617 141.992 13.8826 142.547 13.5209C143.108 13.1529 143.717 12.9689 144.373 12.9689Z" fill="white"/>
<path d="M153.985 23.8096L153.427 22.3629H153.351C152.865 22.9784 152.364 23.4067 151.847 23.6478C151.336 23.8826 150.667 24 149.841 24C148.826 24 148.025 23.7081 147.438 23.1244C146.858 22.5406 146.568 21.7094 146.568 20.6307C146.568 19.5013 146.959 18.6701 147.741 18.1371C148.529 17.5977 149.715 17.2995 151.298 17.2424L153.133 17.1853V16.7189C153.133 15.6402 152.585 15.1009 151.487 15.1009C150.642 15.1009 149.649 15.3579 148.507 15.8718L147.552 13.9112C148.769 13.2703 150.119 12.9499 151.601 12.9499C153.02 12.9499 154.108 13.2608 154.865 13.8826C155.622 14.5044 156 15.4499 156 16.7189V23.8096H153.985ZM153.133 18.8794L152.017 18.9175C151.178 18.9429 150.554 19.0952 150.144 19.3744C149.734 19.6536 149.529 20.0787 149.529 20.6497C149.529 21.4683 149.996 21.8775 150.929 21.8775C151.598 21.8775 152.131 21.684 152.528 21.297C152.932 20.9099 153.133 20.3959 153.133 19.7551V18.8794Z" fill="white"/>
</svg>
