<svg width="979" height="722" viewBox="0 0 979 722" fill="none" xmlns="http://www.w3.org/2000/svg">
<g clip-path="url(#clip0)">
<rect x="3.5" y="3.5" width="972" height="715" stroke="white" stroke-width="7"/>
<rect x="21" y="694" width="8" height="8" fill="white"/>
<rect x="952" y="695" width="8" height="8" fill="white"/>
<rect x="953" y="20" width="8" height="8" fill="white"/>
<rect x="21" y="20" width="8" height="8" fill="white"/>
<path d="M286 218L283 218L283 215L286 215L286 218Z" fill="white"/>
<path d="M286 212L283 212L283 209L286 209L286 212Z" fill="white"/>
<path d="M283 209L280 209L280 206L283 206L283 209Z" fill="white"/>
<path d="M283 221L280 221L280 218L283 218L283 221Z" fill="white"/>
<path d="M694 212L691 212L691 209L694 209L694 212Z" fill="white"/>
<path d="M697 209L694 209L694 206L697 206L697 209Z" fill="white"/>
<path d="M697 221L694 221L694 218L697 218L697 221Z" fill="white"/>
<path d="M694 218L691 218L691 215L694 215L694 218Z" fill="white"/>
<path d="M816 331H819V328H816V331Z" fill="white"/>
<path d="M732 369H735V366H732V369Z" fill="white"/>
<path d="M705 279H708V276H705V279Z" fill="white"/>
<path d="M893 427H896V424H893V427Z" fill="white"/>
<path d="M816 328H819V325H816V328Z" fill="white"/>
<path d="M813 331H816V328H813V331Z" fill="white"/>
<path d="M819 331H822V328H819V331Z" fill="white"/>
<path d="M816 334H819V331H816V334Z" fill="white"/>
<path d="M797 601L794 601L794 604L797 604L797 601Z" fill="white"/>
<path d="M881 563L878 563L878 566L881 566L881 563Z" fill="white"/>
<path d="M908 653L905 653L905 656L908 656L908 653Z" fill="white"/>
<path d="M720 505L717 505L717 508L720 508L720 505Z" fill="white"/>
<path d="M797 604L794 604L794 607L797 607L797 604Z" fill="white"/>
<path d="M800 601L797 601L797 604L800 604L800 601Z" fill="white"/>
<path d="M794 601L791 601L791 604L794 604L794 601Z" fill="white"/>
<path d="M797 598L794 598L794 601L797 601L797 598Z" fill="white"/>
<path d="M790.629 61.6316L793.227 60.1316L791.727 57.5335L789.129 59.0335L790.629 61.6316Z" fill="white"/>
<path d="M736.883 136.541L739.481 135.041L737.981 132.442L735.383 133.942L736.883 136.541Z" fill="white"/>
<path d="M668.5 72.0983L671.098 70.5983L669.598 68.0002L667 69.5002L668.5 72.0983Z" fill="white"/>
<path d="M905.313 106.27L907.911 104.77L906.411 102.172L903.813 103.672L905.313 106.27Z" fill="white"/>
<path d="M230 523L230 526L233 526L233 523L230 523Z" fill="white"/>
<path d="M192 439L192 442L195 442L195 439L192 439Z" fill="white"/>
<path d="M282 412L282 415L285 415L285 412L282 412Z" fill="white"/>
<path d="M134 600L134 603L137 603L137 600L134 600Z" fill="white"/>
<path d="M173 233H176V230H173V233Z" fill="white"/>
<path d="M89 271H92V268H89V271Z" fill="white"/>
<path d="M62 181H65V178H62V181Z" fill="white"/>
<path d="M250 329H253V326H250V329Z" fill="white"/>
<path d="M89 274H92V271H89V274Z" fill="white"/>
<path d="M89 268H92V265H89V268Z" fill="white"/>
<path d="M86 271H89V268H86V271Z" fill="white"/>
<path d="M92 271H95V268H92V271Z" fill="white"/>
<path d="M98 271H101V268H98V271Z" fill="white"/>
<path d="M89 262H92V259H89V262Z" fill="white"/>
<path d="M80 271H83V268H80V271Z" fill="white"/>
<path d="M89 280H92V277H89V280Z" fill="white"/>
</g>
<defs>
<clipPath id="clip0">
<rect width="979" height="722" fill="white"/>
</clipPath>
</defs>
</svg>
