<svg width="202" height="24" viewBox="0 0 202 24" fill="none" xmlns="http://www.w3.org/2000/svg">
<path d="M196 10H199V13H196V10Z" fill="white"/>
<path d="M193 7H196V10H193V7Z" fill="white"/>
<path d="M199 13H202V16H199V13Z" fill="white"/>
<path d="M196 16H199V19H196V16Z" fill="white"/>
<path d="M193 19H196V22H193V19Z" fill="white"/>
<path d="M103 18H106V21H103V18Z" fill="white"/>
<path d="M100 15H103V18H100V15Z" fill="white"/>
<path d="M106 15H109V18H106V15Z" fill="white"/>
<path d="M103 15H106V18H103V15Z" fill="white"/>
<path d="M103 12H106V15H103V12Z" fill="white"/>
<path d="M100 12H103V15H100V12Z" fill="white"/>
<path d="M97 15H100V18H97V15Z" fill="white"/>
<path d="M94 18H97V21H94V18Z" fill="white"/>
<path d="M103 9H106V12H103V9Z" fill="white"/>
<path d="M106 6H109V9H106V6Z" fill="white"/>
<path d="M109 6H112V9H109V6Z" fill="white"/>
<path d="M158 13H199V16H158V13Z" fill="white"/>
<path d="M6 19L3 19L3 16L6 16L6 19Z" fill="white"/>
<path d="M9 22L6 22L6 19L9 19L9 22Z" fill="white"/>
<path d="M3 16L0 16L2.62268e-07 13L3 13L3 16Z" fill="white"/>
<path d="M6 13L3 13L3 10L6 10L6 13Z" fill="white"/>
<path d="M9 10L6 10L6 7L9 7L9 10Z" fill="white"/>
<path d="M44 16L3 16L3 13L44 13L44 16Z" fill="white"/>
<path d="M106 9H109V12H106V9Z" fill="white"/>
<path d="M94 15H97V18H94V15Z" fill="white"/>
<path d="M103 6H106V9H103V6Z" fill="white"/>
<path d="M100 3H103V6H100V3Z" fill="white"/>
<path d="M97 3H100V6H97V3Z" fill="white"/>
<path d="M88 0H91V3H88V0Z" fill="white"/>
<path d="M94 3H97V6H94V3Z" fill="white"/>
<path d="M91 6H94V9H91V6Z" fill="white"/>
<path d="M88 3H91V6H88V3Z" fill="white"/>
<path d="M91 3H94V6H91V3Z" fill="white"/>
<path d="M94 6H97V9H94V6Z" fill="white"/>
<path d="M94 9H97V12H94V9Z" fill="white"/>
<path d="M94 12H97V15H94V12Z" fill="white"/>
<path d="M97 12H100V15H97V12Z" fill="white"/>
<path d="M106 18H109V21H106V18Z" fill="white"/>
<path d="M106 24H109V21H106V24Z" fill="white"/>
<path d="M91 18H94V15H91V18Z" fill="white"/>
<path d="M103 6H106V3H103V6Z" fill="white"/>
<path d="M94 24H97V21H94V24Z" fill="white"/>
<path d="M97 21H100V18H97V21Z" fill="white"/>
<path d="M109 21H112V18H109V21Z" fill="white"/>
<path d="M97 6H100V9H97V6Z" fill="white"/>
<path d="M100 6H103V9H100V6Z" fill="white"/>
<path d="M100 9H103V12H100V9Z" fill="white"/>
<path d="M97 9H100V12H97V9Z" fill="white"/>
<path d="M91 0H94V3H91V0Z" fill="white"/>
<path d="M91 9H94V12H91V9Z" fill="white"/>
<path d="M91 12H94V15H91V12Z" fill="white"/>
</svg>
