<svg width="285" height="52" viewBox="0 0 285 52" fill="none" xmlns="http://www.w3.org/2000/svg">
<path d="M33.2324 0.25H35.4824V11.5H37.7324V13.75H35.4824V16H33.2324V0.25ZM42.2324 0.25H44.4824V16H42.2324V9.25H39.9824V7H42.2324V0.25ZM37.7324 9.25H39.9824V11.5H37.7324V9.25ZM48.9824 16H53.4824V13.75H48.9824V16ZM46.7324 13.75H48.9824V7H46.7324V13.75ZM48.9824 7H53.4824V4.75H48.9824V7ZM55.7324 4.75H64.7324V16H62.4824V7H57.9824V16H55.7324V4.75ZM69.2324 16H73.7324V13.75H69.2324V16ZM66.9824 13.75H69.2324V7H66.9824V13.75ZM73.7324 13.75H75.9824V7H73.7324V13.75ZM69.2324 7H73.7324V4.75H69.2324V7ZM82.7324 4.75H87.2324V16H84.9824V7H82.7324V4.75ZM80.4824 7H82.7324V13.75H80.4824V7ZM78.2324 13.75H80.4824V16H78.2324V13.75ZM89.4824 4.75H91.7324V9.25H96.2324V11.5H91.7324V13.75H96.2324V16H89.4824V7V4.75ZM96.2324 11.5H98.4824V13.75H96.2324V11.5ZM100.768 4.75H107.518V7H100.768V4.75ZM107.518 7H109.768V9.25H107.518V7ZM103.018 9.25H107.518V11.5H103.018V9.25ZM107.518 11.5H109.768V13.75H107.518V11.5ZM100.768 13.75H107.518V16H100.768V13.75ZM114.268 22.75H118.768V20.5H114.268V22.75ZM112.018 20.5H114.268V18.25H112.018V20.5ZM112.018 13.75H114.268V4.75H112.018V13.75ZM118.768 20.5H121.018V4.75H118.768V13.75H114.268V16H118.768V20.5ZM123.268 13.75H125.518V4.75H123.268V13.75ZM125.518 16H132.268V4.75H130.018V13.75H125.518V16ZM125.518 0.25H130.018V2.5H125.518V0.25ZM145.768 16H148.018V11.5H145.768V16ZM145.768 9.25H148.018V4.75H145.768V9.25H141.268V4.75H139.018V16H141.268V11.5H145.768V9.25ZM152.518 22.75H157.018V20.5H152.518V22.75ZM150.268 20.5H152.518V18.25H150.268V20.5ZM150.268 13.75H152.518V4.75H150.268V13.75ZM157.018 20.5H159.268V4.75H157.018V13.75H152.518V16H157.018V20.5ZM168.268 13.75H170.518V7H168.268V13.75H163.768V7H168.268V4.75H161.518V20.5H163.768V16H168.268V13.75ZM175.018 16H179.518V13.75H175.018V16ZM172.768 13.75H175.018V7H172.768V13.75ZM175.018 7H179.518V4.75H175.018V7ZM184.018 16H188.518V13.75H184.018V16ZM181.768 13.75H184.018V7H181.768V13.75ZM188.518 13.75H190.768V7H188.518V13.75ZM184.018 7H188.518V4.75H184.018V7ZM202.018 7V4.75H197.518V16H199.768V7H202.018V11.6055H204.268V7H202.018ZM204.268 4.75V7H206.518V16H208.768V4.75H204.268ZM211.018 4.75H213.268V9.25H217.768V11.5H213.268V13.75H217.768V16H211.018V4.75ZM220.018 4.75H222.268V16H220.018V13.75H217.768V11.5H220.018V4.75ZM224.518 4.75H226.768V13.75H229.018V7H231.268V13.75H233.518V4.75H235.768V16H224.518V4.75ZM238.018 13.75H240.268V4.75H238.018V13.75ZM240.268 16H247.018V4.75H244.768V13.75H240.268V16ZM0.607422 35.75H2.85742V40.25H0.607422V35.75ZM7.35742 35.75H9.60742V47H7.35742V42.5H2.85742V40.25H7.35742V35.75ZM11.8574 35.75H23.1074V38H18.6074V47H16.3574V38H11.8574V35.75ZM27.6074 47H32.1074V44.75H27.6074V47ZM25.3574 44.75H27.6074V38H25.3574V44.75ZM32.1074 44.75H34.3574V38H32.1074V44.75ZM27.6074 38H32.1074V35.75H27.6074V38ZM43.3574 31.25H47.8574V33.5H43.3574V31.25ZM41.1074 33.5H43.3574V38H47.8574V40.25H43.3574V44.75H47.8574V47H41.1074V33.5ZM47.8574 40.25H50.1074V44.75H47.8574V40.25ZM52.3574 35.75H54.6074V40.25H59.1074V42.5H54.6074V44.75H59.1074V47H52.3574V35.75ZM61.3574 35.75H63.6074V47H61.3574V44.75H59.1074V42.5H61.3574V35.75ZM70.3574 35.75H72.6074V40.25H77.1074V35.75H79.3574V47H77.1074V42.5H72.6074V47H70.3574V35.75ZM81.6074 44.75H83.8574V42.5H81.6074V44.75ZM81.6074 40.25H83.8574V38H81.6074V40.25ZM83.8574 47H90.6074V38H88.3574V40.25H83.8574V42.5H88.3574V44.75H83.8574V47ZM83.8574 38H88.3574V35.75H83.8574V38ZM92.8574 35.75H101.857V47H99.6074V38H95.1074V47H92.8574V35.75ZM110.857 44.75H113.107V38H110.857V44.75H106.357V38H110.857V35.75H104.107V51.5H106.357V47H110.857V44.75ZM115.357 44.75H117.607V42.5H115.357V44.75ZM115.357 40.25H117.607V38H115.357V40.25ZM117.607 47H124.357V38H122.107V40.25H117.607V42.5H122.107V44.75H117.607V47ZM117.607 38H122.107V35.75H117.607V38ZM126.607 35.75H133.357V38H128.857V40.25H133.357V42.5H128.857V44.75H133.357V47H126.607V35.75ZM133.357 38H135.607V40.25H133.357V38ZM133.357 42.5H135.607V44.75H133.357V42.5ZM142.357 35.75H146.857V47H144.607V38H142.357V35.75ZM140.107 38H142.357V44.75H140.107V38ZM137.857 44.75H140.107V47H137.857V44.75ZM151.357 35.75H158.107V47H155.857V42.5H151.357V40.25H155.857V38H151.357V35.75ZM149.107 38H151.357V40.25H149.107V38ZM149.107 42.5H151.357V47H149.107V42.5ZM160.357 35.75H171.607V38H167.107V47H164.857V38H160.357V35.75ZM173.857 35.75H176.107V40.25H180.607V42.5H176.107V44.75H180.607V47H173.857V38V35.75ZM180.607 42.5H182.857V44.75H180.607V42.5ZM191.893 47H196.393V44.75H191.893V47ZM189.643 44.75H191.893V38H189.643V44.75ZM191.893 38H196.393V35.75H191.893V38ZM198.643 35.75H205.393V38H200.893V40.25H205.393V42.5H200.893V44.75H205.393V47H198.643V35.75ZM205.393 38H207.643V40.25H205.393V38ZM205.393 42.5H207.643V44.75H205.393V42.5ZM212.143 47H216.643V44.75H212.143V47ZM209.893 44.75H212.143V38H209.893V44.75ZM216.643 44.75H218.893V38H216.643V44.75ZM212.143 38H216.643V35.75H212.143V38ZM221.143 44.75H223.393V35.75H221.143V44.75ZM223.393 47H230.143V35.75H227.893V44.75H223.393V47ZM223.393 31.25H227.893V33.5H223.393V31.25ZM236.893 35.75H239.143V44.75H241.393V38H243.643V44.75H245.893V35.75H248.143V47H236.893V35.75ZM250.393 44.75H252.643V42.5H250.393V44.75ZM250.393 40.25H252.643V38H250.393V40.25ZM252.643 47H259.393V38H257.143V40.25H252.643V42.5H257.143V44.75H252.643V47ZM252.643 38H257.143V35.75H252.643V38ZM261.643 35.75H272.893V38H268.393V47H266.143V38H261.643V35.75ZM279.643 35.75H284.143V47H281.893V38H279.643V35.75ZM277.393 38H279.643V44.75H277.393V38ZM275.143 44.75H277.393V47H275.143V44.75Z" fill="white"/>
</svg>
