<svg width="20" height="19" viewBox="0 0 20 19" fill="none" xmlns="http://www.w3.org/2000/svg">
    <path d="M15.0076 19H5.2298C4.37069 19 4.11869 18.5 3.67424 17.4L0.674243 7C0.479106 6.18399 1.09772 5.4 1.93674 5.4H6.2298V1.6C6.2298 0.716344 6.92624 0 7.78535 0H12.452C13.3111 0 14.0076 0.716344 14.0076 1.6V5.4H18.3415C19.1767 5.4 19.7831 6.1943 19.5631 7L16.5631 17.4C16.1187 18.5 15.8667 19 15.0076 19ZM2.2298 7L5.2298 17.4H15.0076L18.0076 7H2.2298ZM7.78535 1.6V5.4H12.452V1.6H7.78535ZM12.452 15.8H10.8965V8.6H12.452V15.8ZM9.34091 15.8H7.78535V8.6H9.34091V15.8Z" fill="black"/>
</svg>
