<svg width="26" height="16" viewBox="0 0 26 16" fill="none" xmlns="http://www.w3.org/2000/svg">
<path fill-rule="evenodd" clip-rule="evenodd" d="M12.4704 4.04492C12.4704 3.11981 12.2281 2.32687 11.7449 1.66311C10.9396 0.582088 9.57444 0.0282134 7.6448 0H0V15.6065H7.12852C7.93229 15.6065 8.67585 15.5382 9.36371 15.3971C10.0516 15.2546 10.6461 14.9947 11.1504 14.6131C11.5989 14.2805 11.9722 13.8706 12.2702 13.3851C12.7413 12.6515 12.9761 11.8214 12.9761 10.8963C12.9761 9.99944 12.7699 9.23619 12.3605 8.60956C11.9466 7.98144 11.3385 7.5226 10.5317 7.23155C11.0631 6.96427 11.4649 6.66729 11.7389 6.34357C12.2281 5.76445 12.4704 4.99675 12.4704 4.04492ZM23.1376 2.66988H16.3583V0.72761H23.1376V2.66988ZM17.1485 8.6942C17.2599 7.94283 17.5323 7.34738 17.9643 6.90784C18.3963 6.46831 19.0074 6.24854 19.7901 6.24854C20.5126 6.24854 21.1161 6.45494 21.6068 6.86923C22.0915 7.2865 22.3654 7.89234 22.4211 8.6942H17.1485ZM22.54 4.30032C23.3574 4.65968 24.0302 5.22988 24.56 6.00798C25.0432 6.69401 25.3532 7.48993 25.4947 8.39425C25.5775 8.92288 25.6106 9.68909 25.5971 10.6855H17.0732C17.1244 11.8422 17.5278 12.6545 18.2985 13.1193C18.7651 13.4088 19.3265 13.5543 19.9858 13.5543C20.6796 13.5543 21.2471 13.3776 21.6821 13.0257C21.9214 12.8342 22.1321 12.5698 22.3128 12.2313H25.436C25.3532 12.9143 24.9739 13.6108 24.3026 14.3176C23.255 15.4387 21.7875 16 19.9015 16C18.3436 16 16.9694 15.5278 15.7818 14.5804C14.5882 13.6345 13.9951 12.0932 13.9951 9.96084C13.9951 7.96065 14.5325 6.42673 15.6057 5.35907C16.6819 4.29438 18.0742 3.75833 19.7886 3.75833C20.8076 3.75833 21.7242 3.93949 22.54 4.30032ZM3.15335 12.898V8.73578H7.04875C7.72608 8.74172 8.2544 8.83081 8.63069 9.00009C9.30351 9.3045 9.63766 9.86135 9.63766 10.6751C9.63766 11.6343 9.29146 12.2818 8.59758 12.6233C8.21677 12.8059 7.68092 12.898 6.99456 12.898H3.15335ZM3.15335 2.70998V6.1535H7.00058C7.68544 6.1535 8.24386 6.02432 8.67434 5.76594C9.10181 5.50756 9.31705 5.05021 9.31705 4.39684C9.31705 3.66775 9.03408 3.18812 8.46813 2.9535C7.97744 2.79165 7.3543 2.70998 6.5972 2.70998H3.15335Z" fill="white"/>
</svg>
