<svg id="call" width="36" height="36" viewBox="0 0 36 36" fill="none" xmlns="http://www.w3.org/2000/svg">
<path d="M15.8874 15.2222L15.8875 15.2222L15.8847 15.214C15.5757 14.287 15.4159 13.2898 15.4159 12.2552C15.4159 11.5022 14.7947 10.881 14.0417 10.881H10.9866C10.6866 10.881 10.3162 10.9457 10.0045 11.154C9.6664 11.3801 9.43578 11.7526 9.43578 12.2552C9.43578 20.7346 16.4854 27.775 24.9556 27.775C25.4417 27.775 25.809 27.5484 26.0371 27.2233C26.2509 26.9186 26.3298 26.55 26.3298 26.2331V23.1867C26.3298 22.4337 25.7086 21.8125 24.9556 21.8125C23.9251 21.8125 22.9275 21.6452 21.9964 21.3436C21.505 21.177 20.9634 21.3063 20.5933 21.6764L20.5733 21.6963L20.5558 21.7184L19.4217 23.1414C17.266 22.0159 15.2665 20.0803 14.0999 17.8646L15.5226 16.6535L15.5413 16.6376L15.5584 16.6199C15.9282 16.2364 16.0375 15.6998 15.8874 15.2222ZM35.4991 18.174C35.403 27.8385 27.4905 35.5952 17.826 35.4991C8.16147 35.403 0.404765 27.4905 0.500884 17.826C0.597004 8.16147 8.50955 0.404765 18.174 0.500884C27.8385 0.597004 35.5952 8.50955 35.4991 18.174Z" fill="white" stroke="white"/>
</svg>
