<svg width="24" height="24" viewBox="0 0 24 24" fill="none" xmlns="http://www.w3.org/2000/svg">
<path fill-rule="evenodd" clip-rule="evenodd" d="M11.9993 0C8.74193 5.46649e-06 8.33284 0.0142612 7.05307 0.0725C5.77556 0.131 4.90355 0.33325 4.14054 0.63C3.35128 0.9365 2.68178 1.3465 2.01477 2.01375C1.34726 2.68075 0.93726 3.35025 0.629757 4.13925C0.332253 4.9025 0.129751 5.77475 0.0722507 7.05175C0.0150002 8.33175 0 8.741 0 12C0 15.259 0.0145001 15.6667 0.0725008 16.9467C0.131251 18.2242 0.333504 19.0963 0.630007 19.8592C0.93676 20.6485 1.34676 21.318 2.01402 21.985C2.68078 22.6525 3.35029 23.0635 4.13904 23.37C4.90255 23.6667 5.77481 23.869 7.05207 23.9275C8.33209 23.9858 8.74084 24 11.9996 24C15.2589 24 15.6667 23.9858 16.9467 23.9275C18.2242 23.869 19.0972 23.6667 19.8607 23.37C20.6497 23.0635 21.3182 22.6525 21.985 21.985C22.6525 21.318 23.0625 20.6485 23.37 19.8595C23.665 19.0962 23.8675 18.224 23.9275 16.947C23.985 15.667 24 15.259 24 12C24 8.741 23.985 8.332 23.9275 7.052C23.8675 5.7745 23.665 4.9025 23.37 4.1395C23.0625 3.35025 22.6525 2.68075 21.985 2.01375C21.3175 1.34625 20.65 0.93625 19.86 0.63C19.0949 0.33325 18.2224 0.131 16.9449 0.0725C15.6652 0.0142612 15.2576 5.46648e-06 11.9993 0ZM10.9246 2.16251C11.1336 2.16218 11.3585 2.16228 11.6012 2.16239C11.7292 2.16245 11.8629 2.16251 12.0011 2.16251C15.2052 2.16251 15.5849 2.17401 16.8502 2.23151C18.0202 2.28501 18.6552 2.48051 19.0782 2.64476C19.6382 2.86226 20.0375 3.12226 20.4572 3.54226C20.8772 3.96226 21.1372 4.36226 21.3552 4.92226C21.5195 5.34476 21.7152 5.97976 21.7685 7.14976C21.826 8.41476 21.8385 8.79476 21.8385 11.9973C21.8385 15.1998 21.826 15.5798 21.7685 16.8448C21.715 18.0148 21.5195 18.6498 21.3552 19.0723C21.1377 19.6323 20.8772 20.031 20.4572 20.4508C20.0372 20.8708 19.6385 21.1308 19.0782 21.3483C18.6557 21.5133 18.0202 21.7083 16.8502 21.7618C15.5852 21.8193 15.2052 21.8318 12.0011 21.8318C8.79684 21.8318 8.41709 21.8193 7.15207 21.7618C5.98206 21.7078 5.34705 21.5123 4.9238 21.348C4.36379 21.1305 3.96379 20.8705 3.54379 20.4505C3.12378 20.0305 2.86378 19.6315 2.64578 19.0713C2.48152 18.6488 2.28577 18.0138 2.23252 16.8438C2.17502 15.5788 2.16352 15.1988 2.16352 11.9943C2.16352 8.78976 2.17502 8.41176 2.23252 7.14676C2.28602 5.97676 2.48152 5.34176 2.64578 4.91876C2.86328 4.35876 3.12378 3.95876 3.54379 3.53876C3.96379 3.11876 4.36379 2.85876 4.9238 2.64076C5.34681 2.47576 5.98206 2.28076 7.15207 2.22701C8.25909 2.17701 8.68809 2.16201 10.9246 2.15951V2.16251ZM16.9667 5.5945C16.9667 4.79925 17.6117 4.155 18.4067 4.155C19.2017 4.155 19.8467 4.7995 19.8467 5.5945C19.8467 6.3895 19.2017 7.0345 18.4067 7.0345C17.6117 7.0345 16.9667 6.3895 16.9667 5.5945ZM12.0011 5.8375C8.59784 5.8375 5.83856 8.59675 5.83856 12C5.83856 15.4033 8.59784 18.1613 12.0011 18.1613C15.4044 18.1613 18.1627 15.4033 18.1627 12C18.1627 8.59675 15.4044 5.8375 12.0011 5.8375ZM16.0012 12C16.0012 9.79074 14.2102 7.99999 12.0011 7.99999C9.79186 7.99999 8.00109 9.79074 8.00109 12C8.00109 14.209 9.79186 16 12.0011 16C14.2102 16 16.0012 14.209 16.0012 12Z" fill="white"/>
</svg>
