<svg width="15" height="13" viewBox="0 0 15 13" fill="none" xmlns="http://www.w3.org/2000/svg">
<path d="M14.4408 9.34715C14.6982 9.46328 14.872 9.5417 14.9463 9.65737C15.0385 9.80101 15.0385 10.4908 14.7311 11.2957C14.4235 12.1005 12.9491 12.835 12.2399 12.9339C11.6041 13.0226 10.7995 13.0596 9.91546 12.7974C9.37942 12.6386 8.69204 12.4266 7.81153 12.0716C4.35169 10.677 2.01356 7.54652 1.57164 6.95486L1.57164 6.95485C1.54069 6.91341 1.51903 6.88442 1.50696 6.86936L1.50398 6.86565C1.30866 6.62237 0 4.99234 0 3.30533C0 1.71834 0.835054 0.886521 1.21943 0.503633C1.24576 0.4774 1.26998 0.453275 1.29167 0.431159C1.62995 0.0862313 2.0298 0 2.27582 0C2.52183 0 2.76813 0.0021221 2.98316 0.0122049C3.00969 0.013448 3.03729 0.0132971 3.06582 0.0131407C3.28088 0.011964 3.54901 0.0104971 3.81351 0.603623C3.91528 0.831899 4.06419 1.17033 4.22124 1.52727L4.22132 1.52744C4.53886 2.24913 4.88966 3.0464 4.95138 3.16179C5.04367 3.33425 5.10516 3.53537 4.98215 3.76541C4.96374 3.7998 4.94671 3.83226 4.93043 3.86328L4.93029 3.86355C4.83789 4.03965 4.76993 4.16918 4.61311 4.34011C4.55146 4.4073 4.48775 4.47974 4.42404 4.55217L4.42398 4.55224C4.29701 4.69659 4.17006 4.84092 4.05951 4.94374C3.87475 5.11554 3.68242 5.30193 3.8977 5.64686C4.11298 5.99178 4.85366 7.11996 5.9508 8.03355C7.13017 9.01559 8.1552 9.43066 8.67476 9.64105L8.67487 9.64109C8.77628 9.68216 8.85843 9.71542 8.9187 9.74358C9.28762 9.9161 9.50292 9.88723 9.71821 9.65737C9.93351 9.42743 10.6408 8.6513 10.8868 8.30644C11.1328 7.96165 11.3789 8.01908 11.7171 8.13401C12.0555 8.24909 13.8699 9.08248 14.239 9.25492C14.311 9.28859 14.3784 9.31898 14.4408 9.34715Z" fill="#FDFDFD"/>
</svg>
