<svg width="18" height="13" viewBox="0 0 18 13" fill="none" xmlns="http://www.w3.org/2000/svg">
<path d="M0.271863 6.04701C2.11331 5.16248 4.16886 4.42425 6.08948 3.68224C9.39367 2.46688 12.711 1.27258 16.0618 0.160711C16.7138 -0.0287414 17.8851 -0.214015 18 0.628504C17.9371 1.82108 17.6784 3.00667 17.5009 4.19227C17.0505 6.7995 16.5298 9.3978 16.0222 11.9964C15.8472 12.862 14.6038 13.3101 13.8082 12.7562C11.8961 11.6299 9.96929 10.5146 8.08163 9.3622C7.46328 8.81428 8.03667 8.02745 8.58892 7.63618C10.1638 6.28277 11.8339 5.13289 13.3265 3.70954C13.7291 2.86169 12.5395 3.57623 12.1471 3.79516C9.99115 5.09076 7.88794 6.46547 5.61487 7.60413C4.45379 8.1615 3.10052 7.68517 1.93996 7.37415C0.899373 6.99845 -0.625473 6.61995 0.271758 6.04707L0.271863 6.04701Z" fill="white"/>
</svg>
