<svg width="16" height="19" viewBox="0 0 16 19" fill="none" xmlns="http://www.w3.org/2000/svg">
<path d="M9.99999 9.6117e-06L5.99999 5.76702e-06C4.89699 4.70685e-06 4 0.946836 4 2.11111L4 3.16667L3.04372e-06 3.16666L5.07286e-06 5.27777L2 5.27778L2.00001 16.8889C2.00002 18.0532 2.89701 19 4.00001 19L12 19C13.103 19 14 18.0532 14 16.8889L14 5.27779L16 5.27779L16 3.16668L12 3.16668L12 2.11112C12 0.946844 11.103 1.06719e-05 9.99999 9.6117e-06ZM6 2.11112L9.99999 2.11112L9.99999 3.16667L6 3.16667L6 2.11112ZM12 16.8889L4.00001 16.8889L4 5.27778L12 5.27779L12 16.8889Z" fill="#FF4141"/>
</svg>
