<svg width="19" height="19" viewBox="0 0 19 19" fill="none" xmlns="http://www.w3.org/2000/svg">
<path fill-rule="evenodd" clip-rule="evenodd" d="M9.53977 18.8367H9.53586C7.95256 18.8362 6.39681 18.4408 5.01503 17.6908L0 19L1.34211 14.1213C0.51423 12.6934 0.0786054 11.0738 0.0793153 9.4144C0.0813906 4.22334 4.32527 0 9.53968 0C12.0704 0.00108701 14.4457 0.981578 16.2318 2.76121C18.0179 4.54075 19.001 6.90619 19 9.42183C18.9979 14.6117 14.7557 18.8346 9.53977 18.8367ZM5.24739 15.9863L5.53451 16.1559C6.74176 16.8689 8.12563 17.2461 9.53659 17.2467H9.53977C13.8736 17.2467 17.4009 13.7362 17.4027 9.42128C17.4035 7.33031 16.5864 5.36425 15.1019 3.88509C13.6173 2.40593 11.6431 1.59094 9.54287 1.59021C5.20567 1.59021 1.6783 5.10038 1.67658 9.41494C1.67597 10.8936 2.09168 12.3336 2.87878 13.5795L3.06573 13.8756L2.2714 16.7632L5.24739 15.9863ZM13.9821 11.4489C14.1469 11.5282 14.2582 11.5817 14.3058 11.6607C14.3649 11.7588 14.3649 12.2298 14.168 12.7794C13.9709 13.3289 13.0266 13.8304 12.5724 13.8979C12.1652 13.9585 11.6498 13.9838 11.0836 13.8047C10.7402 13.6963 10.3 13.5515 9.73601 13.3092C7.51999 12.3569 6.02242 10.2194 5.73938 9.81536C5.71955 9.78706 5.70569 9.76727 5.69795 9.75699L5.69604 9.75445C5.57094 9.58834 4.73275 8.47534 4.73275 7.32342C4.73275 6.23981 5.2676 5.67183 5.51379 5.41039C5.53066 5.39248 5.54617 5.376 5.56006 5.3609C5.77673 5.12538 6.03283 5.0665 6.19041 5.0665C6.34797 5.0665 6.50573 5.06795 6.64345 5.07483C6.66044 5.07568 6.67812 5.07558 6.6964 5.07547C6.83415 5.07467 7.00588 5.07367 7.17529 5.47866C7.24048 5.63453 7.33585 5.86562 7.43644 6.10934C7.63984 6.60215 7.86456 7.14662 7.9041 7.22541C7.9632 7.34317 8.00259 7.4805 7.9238 7.63757C7.91197 7.66112 7.90104 7.68335 7.89058 7.70458C7.8314 7.82482 7.78787 7.91327 7.68743 8.02999C7.64793 8.07588 7.60711 8.12535 7.56629 8.17483C7.48497 8.27339 7.40366 8.37194 7.33285 8.44215C7.21451 8.55945 7.09133 8.68673 7.22921 8.92225C7.3671 9.15777 7.8415 9.9281 8.54422 10.5519C9.2996 11.2225 9.95613 11.5059 10.2889 11.6495C10.3539 11.6776 10.4065 11.7003 10.4452 11.7195C10.6814 11.8373 10.8193 11.8176 10.9572 11.6607C11.0951 11.5037 11.5481 10.9737 11.7057 10.7382C11.8633 10.5028 12.0209 10.542 12.2375 10.6205C12.4542 10.6991 13.6164 11.2681 13.8528 11.3859C13.8989 11.4089 13.9421 11.4296 13.9821 11.4489Z" fill="#FDFDFD"/>
</svg>
