<svg width="19" height="18" viewBox="0 0 19 18" fill="none" xmlns="http://www.w3.org/2000/svg">
<path fill-rule="evenodd" clip-rule="evenodd" d="M9.89922 0C7.45623 4.09987e-06 7.14941 0.0106959 6.18959 0.054375C5.23145 0.09825 4.57744 0.249938 4.00519 0.4725C3.41324 0.702375 2.91111 1.00987 2.41086 1.51031C1.91023 2.01056 1.60273 2.51269 1.3721 3.10444C1.14897 3.67687 0.997094 4.33106 0.953968 5.28881C0.91103 6.24881 0.89978 6.55575 0.89978 9C0.89978 11.4443 0.910655 11.7501 0.954156 12.7101C0.998219 13.6682 1.14991 14.3222 1.37229 14.8944C1.60235 15.4864 1.90985 15.9885 2.4103 16.4887C2.91036 16.9894 3.41249 17.2976 4.00406 17.5275C4.57669 17.7501 5.23089 17.9017 6.18884 17.9456C7.14885 17.9893 7.45541 18 9.8995 18C12.344 18 12.6498 17.9893 13.6098 17.9456C14.5679 17.9017 15.2227 17.7501 15.7953 17.5275C16.3871 17.2976 16.8884 16.9894 17.3885 16.4887C17.8891 15.9885 18.1966 15.4864 18.4273 14.8946C18.6485 14.3222 18.8004 13.668 18.8454 12.7102C18.8885 11.7502 18.8998 11.4443 18.8998 9C18.8998 6.55575 18.8885 6.249 18.8454 5.289C18.8004 4.33087 18.6485 3.67687 18.4273 3.10462C18.1966 2.51269 17.8891 2.01056 17.3885 1.51031C16.8879 1.00969 16.3873 0.702187 15.7947 0.4725C15.221 0.249938 14.5666 0.09825 13.6085 0.054375C12.6486 0.0106959 12.343 4.09986e-06 9.89922 0ZM9.09324 1.62188C9.25001 1.62164 9.41866 1.62171 9.60066 1.62179C9.69669 1.62184 9.79694 1.62188 9.90062 1.62188C12.3036 1.62188 12.5885 1.63051 13.5374 1.67363C14.4149 1.71376 14.8912 1.86038 15.2084 1.98357C15.6284 2.14669 15.9279 2.34169 16.2427 2.65669C16.5577 2.97169 16.7527 3.27169 16.9162 3.69169C17.0394 4.00857 17.1862 4.48482 17.2261 5.36232C17.2693 6.31107 17.2786 6.59607 17.2786 8.99794C17.2786 11.3998 17.2693 11.6848 17.2261 12.6336C17.186 13.5111 17.0394 13.9873 16.9162 14.3042C16.7531 14.7242 16.5577 15.0233 16.2427 15.3381C15.9277 15.6531 15.6286 15.8481 15.2084 16.0112C14.8916 16.1349 14.4149 16.2812 13.5374 16.3213C12.5887 16.3644 12.3036 16.3738 9.90062 16.3738C7.49741 16.3738 7.2126 16.3644 6.26384 16.3213C5.38633 16.2808 4.91007 16.1342 4.59263 16.011C4.17263 15.8479 3.87262 15.6529 3.55762 15.3379C3.24262 15.0229 3.04761 14.7236 2.88411 14.3034C2.76092 13.9866 2.61411 13.5103 2.57417 12.6328C2.53105 11.6841 2.52242 11.3991 2.52242 8.99569C2.52242 6.59232 2.53105 6.30882 2.57417 5.36007C2.6143 4.48257 2.76092 4.00632 2.88411 3.68907C3.04724 3.26907 3.24262 2.96907 3.55762 2.65407C3.87262 2.33907 4.17263 2.14407 4.59263 1.98057C4.90988 1.85682 5.38633 1.71057 6.26384 1.67026C7.09409 1.63276 7.41585 1.62151 9.09324 1.61963V1.62188ZM13.6248 4.19587C13.6248 3.59944 14.1085 3.11625 14.7048 3.11625C15.3011 3.11625 15.7848 3.59962 15.7848 4.19587C15.7848 4.79212 15.3011 5.27587 14.7048 5.27587C14.1085 5.27587 13.6248 4.79212 13.6248 4.19587ZM9.90063 4.37813C7.34816 4.37813 5.2787 6.44757 5.2787 9C5.2787 11.5524 7.34816 13.6209 9.90063 13.6209C12.4531 13.6209 14.5218 11.5524 14.5218 9C14.5218 6.44757 12.4531 4.37813 9.90063 4.37813ZM12.9007 8.99999C12.9007 7.34306 11.5574 5.99999 9.90063 5.99999C8.24367 5.99999 6.90059 7.34306 6.90059 8.99999C6.90059 10.6567 8.24367 12 9.90063 12C11.5574 12 12.9007 10.6567 12.9007 8.99999Z" fill="white"/>
</svg>
