<svg width="21" height="21" viewBox="0 0 21 21" fill="none" xmlns="http://www.w3.org/2000/svg">
<path d="M6.5281 10.5798V12.4445H8.24905C8.55656 12.4445 8.79663 12.4033 8.96724 12.3215C9.27811 12.1685 9.43322 11.8784 9.43322 11.4486C9.43322 11.0841 9.28351 10.8346 8.98207 10.6982C8.81348 10.6224 8.57679 10.5824 8.27333 10.5798H6.5281Z" fill="white"/>
<path d="M6.5281 9.42286V7.88008H8.07102C8.41022 7.88008 8.6894 7.91667 8.90924 7.98919C9.1628 8.0943 9.28958 8.30919 9.28958 8.63584C9.28958 8.92856 9.19315 9.13347 9.00163 9.24922C8.80876 9.36498 8.55858 9.42286 8.25175 9.42286H6.5281Z" fill="white"/>
<path d="M13.1637 9.76082C12.9702 9.95774 12.8481 10.2245 12.7982 10.5611H15.1605C15.1355 10.2019 15.0128 9.93047 14.7957 9.74352C14.5758 9.55791 14.3054 9.46544 13.9817 9.46544C13.6311 9.46544 13.3573 9.5639 13.1637 9.76082Z" fill="white"/>
<path fill-rule="evenodd" clip-rule="evenodd" d="M1.50394 3.52606C0.849976 4.80953 0.849976 6.48969 0.849976 9.85V10.65C0.849976 14.0103 0.849976 15.6905 1.50394 16.9739C2.07918 18.1029 2.99706 19.0208 4.12603 19.596C5.4095 20.25 7.08966 20.25 10.45 20.25H11.25C14.6103 20.25 16.2904 20.25 17.5739 19.596C18.7029 19.0208 19.6208 18.1029 20.196 16.9739C20.85 15.6905 20.85 14.0103 20.85 10.65V9.85C20.85 6.48969 20.85 4.80953 20.196 3.52606C19.6208 2.39708 18.7029 1.4792 17.5739 0.903961C16.2904 0.25 14.6103 0.25 11.25 0.25H10.45C7.08966 0.25 5.4095 0.25 4.12603 0.903961C2.99706 1.4792 2.07918 2.39708 1.50394 3.52606ZM10.3773 7.41106C10.5938 7.70844 10.7023 8.0637 10.7023 8.47817C10.7023 8.90461 10.5938 9.24856 10.3746 9.50802C10.2519 9.65305 10.0718 9.7861 9.83378 9.90585C10.1952 10.0362 10.4677 10.2418 10.6531 10.5232C10.8365 10.804 10.9289 11.1459 10.9289 11.5478C10.9289 11.9622 10.8237 12.3341 10.6127 12.6628C10.4791 12.8803 10.3119 13.0639 10.1109 13.2129C9.88503 13.3839 9.61866 13.5003 9.31048 13.5642C9.0023 13.6274 8.66917 13.658 8.30907 13.658H5.11533V6.66595H8.54037C9.40489 6.67859 10.0165 6.92674 10.3773 7.41106ZM12.4442 7.86212H15.4815V6.99194H12.4442V7.86212ZM16.1188 9.35766C15.8814 9.00906 15.5799 8.75359 15.2138 8.5926C14.8483 8.43093 14.4376 8.34977 13.9811 8.34977C13.213 8.34977 12.5892 8.58993 12.107 9.06694C11.6262 9.54527 11.3855 10.2325 11.3855 11.1286C11.3855 12.084 11.6512 12.7745 12.1859 13.1983C12.718 13.6228 13.3337 13.8343 14.0316 13.8343C14.8766 13.8343 15.5341 13.5828 16.0034 13.0806C16.3042 12.7639 16.4741 12.4519 16.5112 12.1458H15.1119C15.031 12.2975 14.9366 12.4159 14.8294 12.5018C14.6345 12.6594 14.3803 12.7386 14.0694 12.7386C13.774 12.7386 13.5225 12.6734 13.3134 12.5437C12.9682 12.3354 12.7874 11.9715 12.7645 11.4533H16.5834C16.5895 11.0069 16.5746 10.6636 16.5375 10.4268C16.4741 10.0216 16.3352 9.66502 16.1188 9.35766Z" fill="white"/>
</svg>
